<svg width="14" height="15" viewBox="0 0 14 15" fill="none" xmlns="http://www.w3.org/2000/svg">
<g clip-path="url(#clip0_293_1331)">
<path d="M7 0.431641C5.61553 0.431641 4.26216 0.842183 3.11101 1.61135C1.95987 2.38052 1.06266 3.47377 0.532846 4.75286C0.003033 6.03194 -0.13559 7.43941 0.134506 8.79727C0.404603 10.1551 1.07129 11.4024 2.05026 12.3814C3.02922 13.3604 4.2765 14.027 5.63437 14.2971C6.99224 14.5672 8.3997 14.4286 9.67879 13.8988C10.9579 13.369 12.0511 12.4718 12.8203 11.3206C13.5895 10.1695 14 8.81611 14 7.43164C13.998 5.57574 13.2599 3.79643 11.9475 2.48411C10.6352 1.17179 8.8559 0.433648 7 0.431641ZM7 13.265C5.84628 13.265 4.71846 12.9229 3.75918 12.2819C2.79989 11.6409 2.05222 10.7299 1.61071 9.66396C1.16919 8.59806 1.05368 7.42517 1.27876 6.29361C1.50384 5.16206 2.05941 4.12266 2.87521 3.30685C3.69102 2.49104 4.73042 1.93547 5.86198 1.71039C6.99353 1.48531 8.16642 1.60083 9.23232 2.04234C10.2982 2.48385 11.2093 3.23153 11.8502 4.19081C12.4912 5.1501 12.8333 6.27792 12.8333 7.43164C12.8316 8.97822 12.2165 10.461 11.1229 11.5546C10.0293 12.6481 8.54658 13.2633 7 13.265Z" fill="#808080"/>
<path d="M7.00042 3.93164C6.84571 3.93164 6.69733 3.9931 6.58794 4.1025C6.47854 4.21189 6.41708 4.36026 6.41708 4.51497V7.03789L4.45067 8.26989C4.31916 8.35204 4.22568 8.48307 4.19078 8.63414C4.15589 8.78522 4.18243 8.94397 4.26458 9.07547C4.34673 9.20698 4.47776 9.30046 4.62884 9.33536C4.77991 9.37025 4.93866 9.34371 5.07017 9.26156L7.31017 7.86156C7.3948 7.80853 7.4644 7.73466 7.5123 7.64703C7.56021 7.55939 7.58481 7.46092 7.58375 7.36106V4.51497C7.58375 4.36026 7.52229 4.21189 7.4129 4.1025C7.3035 3.9931 7.15513 3.93164 7.00042 3.93164Z" fill="#808080"/>
</g>
<defs>
<clipPath id="clip0_293_1331">
<rect width="14" height="14" fill="white" transform="translate(0 0.431641)"/>
</clipPath>
</defs>
</svg>
