<svg width="20" height="20" viewBox="0 0 20 20" fill="none" xmlns="http://www.w3.org/2000/svg">
<path d="M10.0013 17.5007L8.79297 16.4173C7.39019 15.1534 6.23047 14.0632 5.3138 13.1465C4.39714 12.2298 3.66797 11.4069 3.1263 10.6777C2.58464 9.94857 2.20616 9.27843 1.99089 8.66732C1.77561 8.05621 1.66797 7.43121 1.66797 6.79232C1.66797 5.48676 2.10547 4.39648 2.98047 3.52148C3.85547 2.64648 4.94575 2.20898 6.2513 2.20898C6.97353 2.20898 7.66102 2.36176 8.3138 2.66732C8.96658 2.97287 9.52908 3.40343 10.0013 3.95898C10.4735 3.40343 11.036 2.97287 11.6888 2.66732C12.3416 2.36176 13.0291 2.20898 13.7513 2.20898C15.0569 2.20898 16.1471 2.64648 17.0221 3.52148C17.8971 4.39648 18.3346 5.48676 18.3346 6.79232C18.3346 7.43121 18.227 8.05621 18.0117 8.66732C17.7964 9.27843 17.418 9.94857 16.8763 10.6777C16.3346 11.4069 15.6055 12.2298 14.6888 13.1465C13.7721 14.0632 12.6124 15.1534 11.2096 16.4173L10.0013 17.5007ZM10.0013 15.2507C11.3346 14.0562 12.4319 13.0319 13.293 12.1777C14.1541 11.3236 14.8346 10.5805 15.3346 9.94857C15.8346 9.31662 16.1819 8.75412 16.3763 8.26107C16.5707 7.76801 16.668 7.27843 16.668 6.79232C16.668 5.95898 16.3902 5.26454 15.8346 4.70898C15.2791 4.15343 14.5846 3.87565 13.7513 3.87565C13.0985 3.87565 12.4944 4.05968 11.9388 4.42773C11.3832 4.79579 11.0013 5.26454 10.793 5.83398H9.20964C9.0013 5.26454 8.61936 4.79579 8.0638 4.42773C7.50825 4.05968 6.90408 3.87565 6.2513 3.87565C5.41797 3.87565 4.72352 4.15343 4.16797 4.70898C3.61241 5.26454 3.33464 5.95898 3.33464 6.79232C3.33464 7.27843 3.43186 7.76801 3.6263 8.26107C3.82075 8.75412 4.16797 9.31662 4.66797 9.94857C5.16797 10.5805 5.84853 11.3236 6.70964 12.1777C7.57075 13.0319 8.66797 14.0562 10.0013 15.2507Z" fill="#ABABAB"/>
<path d="M10.0013 15.2507C11.3346 14.0562 12.4319 13.0319 13.293 12.1777C14.1541 11.3236 14.8346 10.5805 15.3346 9.94857C15.8346 9.31662 16.1819 8.75412 16.3763 8.26107C16.5707 7.76801 16.668 7.27843 16.668 6.79232C16.668 5.95898 16.3902 5.26454 15.8346 4.70898C15.2791 4.15343 14.5846 3.87565 13.7513 3.87565C13.0985 3.87565 12.4944 4.05968 11.9388 4.42773C11.3832 4.79579 11.0013 5.26454 10.793 5.83398H9.20964C9.0013 5.26454 8.61936 4.79579 8.0638 4.42773C7.50825 4.05968 6.90408 3.87565 6.2513 3.87565C5.41797 3.87565 4.72352 4.15343 4.16797 4.70898C3.61241 5.26454 3.33464 5.95898 3.33464 6.79232C3.33464 7.27843 3.43186 7.76801 3.6263 8.26107C3.82075 8.75412 4.16797 9.31662 4.66797 9.94857C5.16797 10.5805 5.84853 11.3236 6.70964 12.1777C7.57075 13.0319 8.66797 14.0562 10.0013 15.2507Z" fill="#ABABAB"/>
</svg>
