<svg width="18" height="16" viewBox="0 0 18 16" fill="none" xmlns="http://www.w3.org/2000/svg">
<path d="M9.0013 15.5007L7.79297 14.4173C6.39019 13.1534 5.23047 12.0632 4.3138 11.1465C3.39714 10.2298 2.66797 9.4069 2.1263 8.67773C1.58464 7.94857 1.20616 7.27843 0.990885 6.66732C0.775608 6.05621 0.667969 5.43121 0.667969 4.79232C0.667969 3.48676 1.10547 2.39648 1.98047 1.52148C2.85547 0.646484 3.94575 0.208984 5.2513 0.208984C5.97353 0.208984 6.66102 0.361762 7.3138 0.667318C7.96658 0.972873 8.52908 1.40343 9.0013 1.95898C9.47352 1.40343 10.036 0.972873 10.6888 0.667318C11.3416 0.361762 12.0291 0.208984 12.7513 0.208984C14.0569 0.208984 15.1471 0.646484 16.0221 1.52148C16.8971 2.39648 17.3346 3.48676 17.3346 4.79232C17.3346 5.43121 17.227 6.05621 17.0117 6.66732C16.7964 7.27843 16.418 7.94857 15.8763 8.67773C15.3346 9.4069 14.6055 10.2298 13.6888 11.1465C12.7721 12.0632 11.6124 13.1534 10.2096 14.4173L9.0013 15.5007ZM9.0013 13.2507C10.3346 12.0562 11.4319 11.0319 12.293 10.1777C13.1541 9.32357 13.8346 8.58051 14.3346 7.94857C14.8346 7.31662 15.1819 6.75412 15.3763 6.26107C15.5707 5.76801 15.668 5.27843 15.668 4.79232C15.668 3.95898 15.3902 3.26454 14.8346 2.70898C14.2791 2.15343 13.5846 1.87565 12.7513 1.87565C12.0985 1.87565 11.4944 2.05968 10.9388 2.42773C10.3832 2.79579 10.0013 3.26454 9.79297 3.83398H8.20964C8.0013 3.26454 7.61936 2.79579 7.0638 2.42773C6.50825 2.05968 5.90408 1.87565 5.2513 1.87565C4.41797 1.87565 3.72352 2.15343 3.16797 2.70898C2.61241 3.26454 2.33464 3.95898 2.33464 4.79232C2.33464 5.27843 2.43186 5.76801 2.6263 6.26107C2.82075 6.75412 3.16797 7.31662 3.66797 7.94857C4.16797 8.58051 4.84853 9.32357 5.70964 10.1777C6.57075 11.0319 7.66797 12.0562 9.0013 13.2507Z" fill="#E65364"/>
<path d="M9.0013 13.2507C10.3346 12.0562 11.4319 11.0319 12.293 10.1777C13.1541 9.32357 13.8346 8.58051 14.3346 7.94857C14.8346 7.31662 15.1819 6.75412 15.3763 6.26107C15.5707 5.76801 15.668 5.27843 15.668 4.79232C15.668 3.95898 15.3902 3.26454 14.8346 2.70898C14.2791 2.15343 13.5846 1.87565 12.7513 1.87565C12.0985 1.87565 11.4944 2.05968 10.9388 2.42773C10.3832 2.79579 10.0013 3.26454 9.79297 3.83398H8.20964C8.0013 3.26454 7.61936 2.79579 7.0638 2.42773C6.50825 2.05968 5.90408 1.87565 5.2513 1.87565C4.41797 1.87565 3.72352 2.15343 3.16797 2.70898C2.61241 3.26454 2.33464 3.95898 2.33464 4.79232C2.33464 5.27843 2.43186 5.76801 2.6263 6.26107C2.82075 6.75412 3.16797 7.31662 3.66797 7.94857C4.16797 8.58051 4.84853 9.32357 5.70964 10.1777C6.57075 11.0319 7.66797 12.0562 9.0013 13.2507Z" fill="#E65364"/>
</svg>
