<svg width="106" height="47" viewBox="0 0 106 47" fill="none" xmlns="http://www.w3.org/2000/svg">
<g clip-path="url(#clip0_234_3810)">
<path d="M18.6422 22.6613L18.636 22.6546L10.0987 14.2684C10.8823 12.6035 11.2559 10.8998 11.2559 9.1219V7.6399C11.2559 6.85614 10.5964 6.3999 10.0919 6.3999C9.37324 6.3999 8.96589 7.03387 8.96589 7.6399V9.1219C8.96589 11.2068 8.17652 13.4976 6.81826 15.826C5.46056 18.1535 3.53818 20.5121 1.28178 22.7306C0.748727 23.2636 0.824127 24.0496 1.20518 24.4306L1.2102 24.4356L1.21589 24.4399C1.72219 24.8196 2.38536 24.6456 2.75233 24.2789C5.49141 21.5773 7.67822 18.8363 9.16493 16.2377L17.0083 23.8559C17.2296 24.1546 17.4966 24.3117 17.7616 24.3541C18.0268 24.3966 18.2821 24.3226 18.474 24.1738C18.7013 24.008 18.8597 23.7675 18.9022 23.4966C18.945 23.2234 18.8685 22.9287 18.6422 22.6613ZM29.2439 16.5839H25.3919V7.7919C25.3919 7.39138 25.2711 7.09584 25.0605 6.90142C24.8514 6.70838 24.5676 6.6279 24.2659 6.6279C23.9085 6.6279 23.6213 6.71735 23.4247 6.91941C23.2286 7.12094 23.1399 7.41683 23.1399 7.7919V27.2479C23.1399 27.581 23.2852 27.8895 23.4945 28.1141C23.7028 28.3376 23.9841 28.4879 24.2659 28.4879C24.592 28.4879 24.8742 28.2933 25.0703 28.052C25.2661 27.811 25.3919 27.5044 25.3919 27.2479V18.5319H29.2439C29.5291 18.5319 29.761 18.4497 29.9187 18.2638C30.0735 18.0813 30.1419 17.816 30.1419 17.4819C30.1419 17.2005 30.0715 16.9711 29.9131 16.8127C29.7547 16.6543 29.5253 16.5839 29.2439 16.5839ZM5.74589 32.2259V27.3999C5.74589 27.1206 5.60733 26.8396 5.39274 26.6301C5.17725 26.4197 4.87752 26.2739 4.54389 26.2739C3.90441 26.2739 3.49389 26.8661 3.49389 27.3999V32.9859C3.49389 33.9222 3.65489 34.531 4.0638 34.8985C4.46971 35.2633 5.09436 35.3659 5.94989 35.3659H25.2159C25.5226 35.3659 25.7788 35.3288 25.9583 35.1999C26.1465 35.0646 26.2279 34.8462 26.2279 34.5439C26.2279 34.1553 26.1511 33.8898 25.9658 33.7276C25.7837 33.5684 25.5217 33.5319 25.2159 33.5319H7.01389C6.71022 33.5319 6.48067 33.5223 6.30511 33.4902C6.13062 33.4583 6.02039 33.4061 5.94547 33.3293C5.87024 33.2522 5.81867 33.1381 5.78715 32.9574C5.75552 32.7761 5.74589 32.539 5.74589 32.2259Z" fill="#01B88D" stroke="#01B88D" stroke-width="0.2"/>
<path fill-rule="evenodd" clip-rule="evenodd" d="M55.6416 6.75136C55.6416 7.77014 55.868 8.39272 56.434 8.78891C57.6791 9.69449 60.2827 8.95871 61.1316 8.61912H61.1882C61.1882 8.56252 61.2449 8.56252 61.3015 8.56252H61.358H61.5278H61.5844C61.6127 8.56252 61.641 8.57667 61.6693 8.59082C61.6976 8.60497 61.7259 8.61912 61.7542 8.61912C61.7542 8.61912 61.8108 8.61912 61.8674 8.67571H61.924C61.9481 8.67571 61.9619 8.67571 61.9742 8.68006C61.9908 8.68593 62.0047 8.69977 62.0372 8.73232L62.0938 8.78891V8.84551C62.2636 9.12851 64.0748 11.4491 66.5085 9.8643C67.1311 9.46811 67.3575 8.90211 67.2443 8.16633C67.1311 7.37395 66.5651 6.80796 66.3953 6.75136C66.1123 6.75136 65.8293 6.63817 65.6595 6.35517C65.4897 6.12878 65.4897 5.78919 65.6595 5.50619C66.3953 4.09122 65.3765 3.12904 65.037 2.90265C64.188 2.28006 62.8296 2.11026 61.7542 3.18564C61.5278 3.35544 61.3015 3.46863 61.0185 3.41203C60.7355 3.41203 60.5091 3.24224 60.3959 3.01584C59.8299 2.11026 58.5847 1.99706 57.6791 2.44986C57.3395 2.56305 56.7169 3.01584 56.7169 3.75163C56.9999 3.69503 57.2829 3.69503 57.5659 3.75163C58.0187 3.80823 58.3583 4.26101 58.3017 4.7138C58.2451 5.16659 57.7923 5.50619 57.3395 5.44959C56.8867 5.39299 56.3774 5.56279 56.0378 5.84578C55.868 6.01558 55.6416 6.29857 55.6416 6.75136Z" fill="#01785C"/>
<path fill-rule="evenodd" clip-rule="evenodd" d="M55.6416 6.75136C55.6416 7.77014 55.868 8.39272 56.434 8.78891C57.6791 9.69449 60.2827 8.95871 61.1316 8.61912H61.1882C61.1882 8.56252 61.2449 8.56252 61.3015 8.56252H61.358H61.5278H61.5844C61.6127 8.56252 61.641 8.57667 61.6693 8.59082C61.6976 8.60497 61.7259 8.61912 61.7542 8.61912C61.7542 8.61912 61.8108 8.61912 61.8674 8.67571H61.924C61.9481 8.67571 61.9619 8.67571 61.9742 8.68006C61.9908 8.68593 62.0047 8.69977 62.0372 8.73232L62.0938 8.78891V8.84551C62.2636 9.12851 64.0748 11.4491 66.5085 9.8643C67.1311 9.46811 67.3575 8.90211 67.2443 8.16633C67.1311 7.37395 66.5651 6.80796 66.3953 6.75136C66.1123 6.75136 65.8293 6.63817 65.6595 6.35517C65.4897 6.12878 65.4897 5.78919 65.6595 5.50619C66.3953 4.09122 65.3765 3.12904 65.037 2.90265C64.188 2.28006 62.8296 2.11026 61.7542 3.18564C61.5278 3.35544 61.3015 3.46863 61.0185 3.41203C60.7355 3.41203 60.5091 3.24224 60.3959 3.01584C59.8299 2.11026 58.5847 1.99706 57.6791 2.44986C57.3395 2.56305 56.7169 3.01584 56.7169 3.75163C56.9999 3.69503 57.2829 3.69503 57.5659 3.75163C58.0187 3.80823 58.3583 4.26101 58.3017 4.7138C58.2451 5.16659 57.7923 5.50619 57.3395 5.44959C56.8867 5.39299 56.3774 5.56279 56.0378 5.84578C55.868 6.01558 55.6416 6.29857 55.6416 6.75136Z" fill="#01785C"/>
<path fill-rule="evenodd" clip-rule="evenodd" d="M55.6416 6.75136C55.6416 7.77014 55.868 8.39272 56.434 8.78891C57.6791 9.69449 60.2827 8.95871 61.1316 8.61912H61.1882C61.1882 8.56252 61.2449 8.56252 61.3015 8.56252H61.358H61.5278H61.5844C61.6127 8.56252 61.641 8.57667 61.6693 8.59082C61.6976 8.60497 61.7259 8.61912 61.7542 8.61912C61.7542 8.61912 61.8108 8.61912 61.8674 8.67571H61.924C61.9481 8.67571 61.9619 8.67571 61.9742 8.68006C61.9908 8.68593 62.0047 8.69977 62.0372 8.73232L62.0938 8.78891V8.84551C62.2636 9.12851 64.0748 11.4491 66.5085 9.8643C67.1311 9.46811 67.3575 8.90211 67.2443 8.16633C67.1311 7.37395 66.5651 6.80796 66.3953 6.75136C66.1123 6.75136 65.8293 6.63817 65.6595 6.35517C65.4897 6.12878 65.4897 5.78919 65.6595 5.50619C66.3953 4.09122 65.3765 3.12904 65.037 2.90265C64.188 2.28006 62.8296 2.11026 61.7542 3.18564C61.5278 3.35544 61.3015 3.46863 61.0185 3.41203C60.7355 3.41203 60.5091 3.24224 60.3959 3.01584C59.8299 2.11026 58.5847 1.99706 57.6791 2.44986C57.3395 2.56305 56.7169 3.01584 56.7169 3.75163C56.9999 3.69503 57.2829 3.69503 57.5659 3.75163C58.0187 3.80823 58.3583 4.26101 58.3017 4.7138C58.2451 5.16659 57.7923 5.50619 57.3395 5.44959C56.8867 5.39299 56.3774 5.56279 56.0378 5.84578C55.868 6.01558 55.6416 6.29857 55.6416 6.75136Z" fill="#01785C"/>
<path fill-rule="evenodd" clip-rule="evenodd" d="M56.6416 6.75136C56.6416 7.77014 56.868 8.39272 57.434 8.78891C58.6791 9.69449 61.2827 8.95871 62.1316 8.61912H62.1882C62.1882 8.56252 62.2449 8.56252 62.3015 8.56252H62.358H62.5278H62.5844C62.6127 8.56252 62.641 8.57667 62.6693 8.59082C62.6976 8.60497 62.7259 8.61912 62.7542 8.61912C62.7542 8.61912 62.8108 8.61912 62.8674 8.67571H62.924C62.9481 8.67571 62.9619 8.67571 62.9742 8.68006C62.9908 8.68593 63.0047 8.69977 63.0372 8.73232L63.0938 8.78891V8.84551C63.2636 9.12851 65.0748 11.4491 67.5085 9.8643C68.1311 9.46811 68.3575 8.90211 68.2443 8.16633C68.1311 7.37395 67.5651 6.80796 67.3953 6.75136C67.1123 6.75136 66.8293 6.63817 66.6595 6.35517C66.4897 6.12878 66.4897 5.78919 66.6595 5.50619C67.3953 4.09122 66.3765 3.12904 66.037 2.90265C65.188 2.28006 63.8296 2.11026 62.7542 3.18564C62.5278 3.35544 62.3015 3.46863 62.0185 3.41203C61.7355 3.41203 61.5091 3.24224 61.3959 3.01584C60.8299 2.11026 59.5847 1.99706 58.6791 2.44986C58.3395 2.56305 57.7169 3.01584 57.7169 3.75163C57.9999 3.69503 58.2829 3.69503 58.5659 3.75163C59.0187 3.80823 59.3583 4.26101 59.3017 4.7138C59.2451 5.16659 58.7923 5.50619 58.3395 5.44959C57.8867 5.39299 57.3774 5.56279 57.0378 5.84578C56.868 6.01558 56.6416 6.29857 56.6416 6.75136Z" fill="#01785C"/>
<path fill-rule="evenodd" clip-rule="evenodd" d="M63.2634 11.3926C63.9992 11.8454 64.8482 12.185 65.867 12.185C66.6594 12.185 67.5649 11.9586 68.4705 11.336C69.8289 10.487 70.3383 8.90223 69.7723 7.31746C69.5459 6.58168 69.0365 5.90249 68.4705 5.4497C68.8667 3.97813 68.3573 2.50656 67.0555 1.54439C65.8104 0.582206 63.8294 0.355809 62.2446 1.37459C61.0561 0.299211 59.3015 0.299213 57.9997 0.9218C56.5282 1.60099 55.7924 3.01595 56.132 4.48752C56.1037 4.51582 56.0754 4.52997 56.0471 4.54412C56.0188 4.55827 55.9905 4.57242 55.9622 4.60072C55.3396 5.16671 55 5.90249 55 6.75147C55 8.33624 55.5094 9.46821 56.5282 10.204C58.0563 11.2794 60.2637 10.9398 61.6221 10.6002C62.127 10.2945 62.4691 10.3747 63.2634 11.3926ZM56.6414 6.75147C56.6414 7.77025 56.8678 8.39283 57.4338 8.78902C58.6789 9.6946 61.2825 8.95882 62.1314 8.61923H62.188C62.188 8.56263 62.2447 8.56263 62.3013 8.56263H62.3578H62.5276H62.5842C62.6125 8.56263 62.6408 8.57678 62.6691 8.59093C62.6974 8.60508 62.7257 8.61923 62.754 8.61923C62.754 8.61923 62.8106 8.61923 62.8672 8.67582H62.9238C62.9479 8.67582 62.9617 8.67582 62.974 8.68017C62.9906 8.68604 63.0045 8.69988 63.037 8.73243L63.0936 8.78902V8.84562C63.2634 9.12862 65.0746 11.4492 67.5083 9.86441C68.1309 9.46822 68.3573 8.90222 68.2441 8.16644C68.1309 7.37406 67.5649 6.80807 67.3951 6.75147C67.1121 6.75147 66.8291 6.63828 66.6593 6.35528C66.4895 6.12889 66.4895 5.7893 66.6593 5.5063C67.3951 4.09133 66.3763 3.12915 66.0368 2.90276C65.1878 2.28017 63.8294 2.11037 62.754 3.18575C62.5276 3.35555 62.3013 3.46874 62.0183 3.41214C61.7353 3.41214 61.5089 3.24235 61.3957 3.01595C60.8297 2.11037 59.5845 1.99717 58.6789 2.44997C58.3393 2.56316 57.7167 3.01595 57.7167 3.75174C57.9997 3.69514 58.2827 3.69514 58.5657 3.75174C59.0185 3.80834 59.3581 4.26112 59.3015 4.71391C59.2449 5.1667 58.7921 5.5063 58.3393 5.4497C57.8865 5.3931 57.3772 5.5629 57.0376 5.84589C56.8678 6.01569 56.6414 6.29868 56.6414 6.75147Z" fill="#01785C"/>
<path d="M63.4757 11.3754V15.1267L61.6318 14.173V10.4853C62.1991 10.1419 62.5834 10.2319 63.4757 11.3754Z" fill="#A37575"/>
<path d="M42.855 22.6759C43.8061 19.3658 44.4924 16.1643 44.4924 12.3519V9.9959C44.4924 8.9345 44.2117 8.3128 43.6617 7.9684C43.1256 7.63269 42.3555 7.5779 41.4284 7.5779H28.5464C28.2299 7.5779 27.9749 7.64686 27.7979 7.79622C27.6179 7.94815 27.5344 8.16956 27.5344 8.4379C27.5344 8.79261 27.613 9.07731 27.7877 9.27384C27.9643 9.47261 28.2237 9.5639 28.5464 9.5639H40.8964C41.1522 9.5639 41.3621 9.57109 41.5342 9.59666C41.7064 9.62222 41.8329 9.66512 41.9267 9.73099C42.1069 9.85753 42.2024 10.0963 42.2024 10.6039V12.5799C42.2024 16.2547 41.8621 18.6763 40.7262 22.3501C40.585 22.696 40.6031 23.0301 40.7467 23.2959C40.8905 23.5624 41.1551 23.7501 41.486 23.8122L41.4951 23.8139H41.5044C42.1267 23.8139 42.693 23.3205 42.855 22.6759ZM42.855 22.6759C42.8548 22.6764 42.8547 22.677 42.8545 22.6775L42.7584 22.6499L42.8554 22.6742C42.8553 22.6747 42.8551 22.6753 42.855 22.6759ZM47.3875 30.2309L47.3976 30.2276L47.4068 30.2223C47.6428 30.0846 47.8647 29.9046 48.0134 29.6892C48.162 29.4741 48.2391 29.2205 48.1776 28.9432C48.1529 28.6182 47.9531 28.411 47.7081 28.3097C47.4664 28.2099 47.1756 28.2097 46.9444 28.2931C43.2218 29.4586 39.4629 30.1017 35.2964 30.1118V19.9899C35.2964 19.3751 34.8815 18.8639 34.2464 18.8639C33.9149 18.8639 33.6576 18.9895 33.4851 19.1997C33.3147 19.4073 33.2344 19.6883 33.2344 19.9899V30.1119H27.1404C26.4969 30.1119 25.9004 30.5188 25.9004 31.1999C25.9004 31.5707 26.1122 31.8001 26.3791 31.9309C26.6408 32.0592 26.9621 32.0979 27.2164 32.0979H34.6264H34.629C39.0029 31.9838 43.3081 31.5653 47.3875 30.2309ZM55.2224 18.1799H51.4464V7.4879C51.4464 7.09272 51.3474 6.81176 51.1411 6.63326C50.9379 6.45754 50.6514 6.3999 50.3204 6.3999C49.9367 6.3999 49.6453 6.45594 49.4539 6.63608C49.2608 6.81782 49.1944 7.10168 49.1944 7.4879V34.9619C49.1944 35.6155 49.648 36.1639 50.3204 36.1639C50.6442 36.1639 50.9263 35.9811 51.1234 35.7486C51.32 35.5167 51.4464 35.2191 51.4464 34.9619V20.1659H55.2984C55.5835 20.1659 55.8137 20.0839 55.9711 19.9097C56.1268 19.7373 56.1964 19.4907 56.1964 19.1919C56.1964 18.8725 56.1165 18.6154 55.945 18.4383C55.7729 18.2607 55.5245 18.1799 55.2224 18.1799Z" fill="#808080"/>
<path d="M42.855 22.6759C43.8061 19.3658 44.4924 16.1643 44.4924 12.3519V9.9959C44.4924 8.9345 44.2117 8.3128 43.6617 7.9684C43.1256 7.63269 42.3555 7.5779 41.4284 7.5779H28.5464C28.2299 7.5779 27.9749 7.64686 27.7979 7.79622C27.6179 7.94815 27.5344 8.16956 27.5344 8.4379C27.5344 8.79261 27.613 9.07731 27.7877 9.27384C27.9643 9.47261 28.2237 9.5639 28.5464 9.5639H40.8964C41.1522 9.5639 41.3621 9.57109 41.5342 9.59666C41.7064 9.62222 41.8329 9.66512 41.9267 9.73099C42.1069 9.85753 42.2024 10.0963 42.2024 10.6039V12.5799C42.2024 16.2547 41.8621 18.6763 40.7262 22.3501C40.585 22.696 40.6031 23.0301 40.7467 23.2959C40.8905 23.5624 41.1551 23.7501 41.486 23.8122L41.4951 23.8139H41.5044C42.1267 23.8139 42.693 23.3205 42.855 22.6759ZM42.855 22.6759C42.8548 22.6764 42.8547 22.677 42.8545 22.6775L42.7584 22.6499L42.8554 22.6742C42.8553 22.6747 42.8551 22.6753 42.855 22.6759ZM47.3875 30.2309L47.3976 30.2276L47.4068 30.2223C47.6428 30.0846 47.8647 29.9046 48.0134 29.6892C48.162 29.4741 48.2391 29.2205 48.1776 28.9432C48.1529 28.6182 47.9531 28.411 47.7081 28.3097C47.4664 28.2099 47.1756 28.2097 46.9444 28.2931C43.2218 29.4586 39.4629 30.1017 35.2964 30.1118V19.9899C35.2964 19.3751 34.8815 18.8639 34.2464 18.8639C33.9149 18.8639 33.6576 18.9895 33.4851 19.1997C33.3147 19.4073 33.2344 19.6883 33.2344 19.9899V30.1119H27.1404C26.4969 30.1119 25.9004 30.5188 25.9004 31.1999C25.9004 31.5707 26.1122 31.8001 26.3791 31.9309C26.6408 32.0592 26.9621 32.0979 27.2164 32.0979H34.6264H34.629C39.0029 31.9838 43.3081 31.5653 47.3875 30.2309ZM55.2224 18.1799H51.4464V7.4879C51.4464 7.09272 51.3474 6.81176 51.1411 6.63326C50.9379 6.45754 50.6514 6.3999 50.3204 6.3999C49.9367 6.3999 49.6453 6.45594 49.4539 6.63608C49.2608 6.81782 49.1944 7.10168 49.1944 7.4879V34.9619C49.1944 35.6155 49.648 36.1639 50.3204 36.1639C50.6442 36.1639 50.9263 35.9811 51.1234 35.7486C51.32 35.5167 51.4464 35.2191 51.4464 34.9619V20.1659H55.2984C55.5835 20.1659 55.8137 20.0839 55.9711 19.9097C56.1268 19.7373 56.1964 19.4907 56.1964 19.1919C56.1964 18.8725 56.1165 18.6154 55.945 18.4383C55.7729 18.2607 55.5245 18.1799 55.2224 18.1799Z" stroke="#808080" stroke-width="0.2"/>
<path d="M80.6735 39.6553L80.6787 39.6526C83.2237 38.1872 86.6568 33.7041 86.6568 25.9239V19.3119C86.6568 18.4107 86.4756 17.8555 86.0517 17.5363C85.6368 17.2238 85.0144 17.1599 84.2008 17.1599H80.7048C80.4395 17.1599 80.1438 17.241 79.9118 17.4008C79.6779 17.5619 79.5028 17.8084 79.5028 18.1339C79.5028 18.4784 79.6874 18.7342 79.9257 18.9C80.1619 19.0643 80.4575 19.1459 80.7048 19.1459H83.6688C83.8586 19.1459 83.9971 19.1507 84.0997 19.1656C84.2031 19.1806 84.2565 19.2041 84.2874 19.2308C84.3158 19.2553 84.3373 19.2931 84.3505 19.3679C84.3642 19.4452 84.3668 19.5481 84.3668 19.6919V25.8479C84.3668 32.7762 81.7937 36.3504 79.4726 37.8479L79.4699 37.8497C79.2156 38.0257 79.0239 38.2218 78.9427 38.4655C78.8603 38.7126 78.898 38.9878 79.0574 39.3066L79.06 39.3115C79.2226 39.596 79.4433 39.78 79.7246 39.8395C80.0021 39.8982 80.3206 39.8318 80.6735 39.6553ZM89.1116 41.7823L89.1189 41.7784L89.1255 41.7733C90.1129 41.0183 91.2138 39.5104 92.1621 37.4899C93.102 35.4873 93.8962 32.9722 94.2821 30.1659H98.3128V44.9619C98.3128 45.2234 98.4619 45.5216 98.6659 45.7504C98.8695 45.9788 99.1509 46.1639 99.4388 46.1639C100.066 46.1639 100.603 45.6228 100.603 44.9619V17.5639C100.603 17.1889 100.514 16.8922 100.312 16.6904C100.111 16.4887 99.8139 16.3999 99.4388 16.3999C99.1726 16.3999 98.891 16.4817 98.6746 16.6718C98.4557 16.8639 98.3128 17.1586 98.3128 17.5639V28.1799H94.5403C94.6135 27.6877 94.6075 27.1763 94.6018 26.6871C94.6003 26.5576 94.5988 26.4296 94.5988 26.3039V19.2359C94.5988 18.7342 94.5315 18.3479 94.3975 18.0523C94.2623 17.7537 94.0611 17.5519 93.8039 17.4182C93.5498 17.286 93.2452 17.2226 92.9049 17.1912C92.5654 17.1599 92.1816 17.1599 91.7662 17.1599H91.7628H88.4188C88.064 17.1599 87.7802 17.2385 87.584 17.4074C87.3852 17.5786 87.2928 17.8284 87.2928 18.1339C87.2928 18.476 87.4655 18.7323 87.7006 18.8994C87.9332 19.0648 88.2295 19.1459 88.4948 19.1459H91.3828C91.6203 19.1459 91.7977 19.1507 91.9317 19.1671C92.067 19.1837 92.1452 19.2107 92.1934 19.2456C92.237 19.2772 92.2662 19.3227 92.2845 19.4044C92.3037 19.4902 92.3088 19.6058 92.3088 19.7679V26.2279C92.3088 29.2742 91.6842 32.3601 90.8086 34.8733C90.3709 36.1297 89.871 37.2412 89.3564 38.1318C88.8407 39.0244 88.3144 39.6879 87.8266 40.0561L87.8213 40.0603C87.5296 40.3131 87.3401 40.5681 87.281 40.8312C87.2204 41.1011 87.301 41.3598 87.5057 41.6056C87.6907 41.8316 87.9222 41.9704 88.1983 42.0022C88.4719 42.0338 88.7775 41.9591 89.1116 41.7823ZM103.936 17.5639V44.9619C103.936 45.2256 104.097 45.5244 104.31 45.7522C104.523 45.9799 104.814 46.1639 105.1 46.1639C105.38 46.1639 105.661 46.0253 105.87 45.8108C106.081 45.5953 106.226 45.2955 106.226 44.9619V17.5639C106.226 17.1888 106.138 16.8929 105.942 16.6914C105.745 16.4893 105.458 16.3999 105.1 16.3999C104.835 16.3999 104.544 16.4814 104.319 16.6702C104.091 16.8614 103.936 17.1562 103.936 17.5639Z" fill="#666666" stroke="#666666" stroke-width="0.2"/>
<path d="M68.1484 15.4048C68.1471 15.0854 68.0555 14.8278 67.8526 14.6523C67.651 14.478 67.3569 14.3999 66.9844 14.3999H57.8264C57.4894 14.3999 57.2141 14.4791 57.0227 14.6541C56.8296 14.8306 56.7384 15.0893 56.7384 15.4119C56.7384 15.7008 56.8324 15.9323 57.0277 16.0885C57.2189 16.2415 57.4921 16.3099 57.8264 16.3099H67.0604C67.4295 16.3099 67.7234 16.2427 67.9161 16.0885C68.1153 15.9292 68.1878 15.693 68.1484 15.4048ZM71.9104 19.2499C71.9104 18.8923 71.7503 18.6438 71.5252 18.4884C71.3047 18.3361 71.0267 18.2759 70.7844 18.2759H54.0264C53.6716 18.2759 53.3878 18.3545 53.1916 18.5234C52.9928 18.6946 52.9004 18.9444 52.9004 19.2499C52.9004 19.5071 53.0081 19.7436 53.2057 19.9145C53.4028 20.085 53.6839 20.1859 54.0264 20.1859H70.8604C71.1757 20.1859 71.4377 20.049 71.6199 19.8669C71.7997 19.687 71.9104 19.454 71.9104 19.2499ZM70.1244 26.3559C70.1244 25.3909 69.9119 24.6004 69.5227 23.9587C69.1334 23.3171 68.5712 22.8305 67.8812 22.4674C66.5051 21.7432 64.6132 21.5059 62.5384 21.5059C60.3089 21.5059 58.4072 21.8293 57.0596 22.5973C55.704 23.3698 54.9144 24.59 54.9144 26.3559C54.9144 27.3582 55.1265 28.1723 55.5162 28.8283C55.906 29.4845 56.4697 29.9761 57.1625 30.3395C58.5437 31.0639 60.4456 31.2819 62.5384 31.2819C64.7682 31.2819 66.6608 30.9489 67.9991 30.1662C69.3454 29.3789 70.1244 28.1396 70.1244 26.3559ZM57.1664 26.3559C57.1664 25.7552 57.3117 25.2922 57.5698 24.9328C57.8283 24.5729 58.2061 24.3086 58.6854 24.1165C59.6485 23.7303 60.9984 23.6439 62.5384 23.6439C64.1331 23.6439 65.454 23.7775 66.3738 24.1863C66.8316 24.3897 67.1855 24.6595 67.4255 25.011C67.6652 25.3621 67.7964 25.8023 67.7964 26.3559C67.7964 26.9971 67.6595 27.49 67.4134 27.8709C67.1675 28.2516 66.8072 28.5288 66.346 28.7295C65.4176 29.1333 64.0981 29.2199 62.5384 29.2199C60.8855 29.2199 59.5371 29.0956 58.6039 28.6731C58.1399 28.463 57.7825 28.1809 57.5405 27.8067C57.2984 27.4326 57.1664 26.9585 57.1664 26.3559ZM81.6144 22.9879H77.7624V15.5639C77.7624 15.1634 77.6416 14.8678 77.431 14.6734C77.2219 14.4804 76.9381 14.3999 76.6364 14.3999C76.279 14.3999 75.9918 14.4893 75.7952 14.6914C75.5991 14.8929 75.5104 15.1888 75.5104 15.5639V30.3839C75.5104 30.7239 75.6007 30.9928 75.7993 31.1749C75.9962 31.3554 76.2818 31.4339 76.6364 31.4339C77.0194 31.4339 77.3042 31.3123 77.4928 31.1129C77.6802 30.9148 77.7624 30.6507 77.7624 30.3839V24.9739H81.6144C81.8995 24.9739 82.1297 24.8919 82.2871 24.7177C82.4428 24.5453 82.5124 24.2987 82.5124 23.9999C82.5124 23.6835 82.4435 23.4276 82.2882 23.2501C82.1306 23.07 81.8995 22.9879 81.6144 22.9879ZM59.4744 42.3159C59.4744 42.5973 59.5449 42.8277 59.7092 42.9863C59.8728 43.1443 60.1117 43.2139 60.4104 43.2139H75.0784C75.5439 43.2139 75.9445 43.2045 76.2818 43.1565C76.6193 43.1085 76.9022 43.0207 77.1273 42.8576C77.5834 42.5273 77.7624 41.9199 77.7624 40.8719V35.4759C77.7624 34.5414 77.621 33.8958 77.205 33.4901C76.7897 33.0851 76.1262 32.9439 75.1544 32.9439H58.8524C57.964 32.9439 57.2127 32.9891 56.686 33.3151C56.145 33.65 55.8644 34.2626 55.8644 35.3239V42.0879C55.8644 42.3356 56.0186 42.5979 56.2345 42.7937C56.4525 42.9915 56.751 43.1379 57.0664 43.1379C57.3741 43.1379 57.6383 43.0349 57.8259 42.8474C58.0134 42.6598 58.1164 42.3956 58.1164 42.0879V35.8559C58.1164 35.3821 58.1947 35.1768 58.3564 35.0701C58.4422 35.0136 58.5623 34.9771 58.734 34.9559C58.9054 34.9347 59.1183 34.9299 59.3844 34.9299H74.4704C74.7255 34.9299 74.9159 34.9419 75.0597 34.9738C75.2016 35.0054 75.2898 35.0546 75.3496 35.1235C75.4107 35.1937 75.4525 35.2962 75.4778 35.4548C75.5032 35.6138 75.5104 35.8182 75.5104 36.0839V40.2259C75.5104 40.4816 75.5008 40.6753 75.4719 40.8237C75.4432 40.9709 75.3973 41.0642 75.3317 41.128C75.2658 41.192 75.1686 41.2374 75.0151 41.2658C74.8608 41.2943 74.6596 41.3039 74.3944 41.3039H60.4104C60.1082 41.3039 59.8676 41.3848 59.7046 41.5647C59.5433 41.7427 59.4744 41.9996 59.4744 42.3159Z" fill="#A37575" stroke="#A37575" stroke-width="0.2"/>
</g>
<defs>
<clipPath id="clip0_234_3810">
<rect width="106" height="46" fill="white" transform="translate(0 0.5)"/>
</clipPath>
</defs>
</svg>
