<svg width="20" height="20" viewBox="0 0 20 20" fill="none" xmlns="http://www.w3.org/2000/svg">
<g clip-path="url(#clip0_248_166)">
<path d="M19.1654 9.16666H17.4987V7.49998C17.4987 7.03974 17.1256 6.66666 16.6654 6.66666C16.2051 6.66666 15.832 7.03974 15.832 7.49998V9.16666H14.1654C13.7051 9.16666 13.332 9.53974 13.332 9.99998C13.332 10.4602 13.7051 10.8333 14.1654 10.8333H15.832V12.5C15.832 12.9602 16.2051 13.3333 16.6654 13.3333C17.1256 13.3333 17.4987 12.9602 17.4987 12.5V10.8333H19.1654C19.6256 10.8333 19.9987 10.4602 19.9987 9.99998C19.9987 9.53974 19.6256 9.16666 19.1654 9.16666Z" fill="#808080"/>
<path d="M7.5 9.99997C10.2614 9.99997 12.5 7.76139 12.5 4.99997C12.5 2.23855 10.2614 -3.05176e-05 7.5 -3.05176e-05C4.73858 -3.05176e-05 2.5 2.23855 2.5 4.99997C2.5 7.76139 4.73858 9.99997 7.5 9.99997Z" fill="#808080"/>
<path d="M7.5 11.6666C3.35977 11.6713 0.00460938 15.0264 0 19.1666C0 19.6269 0.373086 20 0.83332 20H14.1666C14.6269 20 15 19.6269 15 19.1666C14.9954 15.0264 11.6402 11.6712 7.5 11.6666Z" fill="#808080"/>
</g>
<defs>
<clipPath id="clip0_248_166">
<rect width="20" height="20" fill="white"/>
</clipPath>
</defs>
</svg>
