<svg width="20" height="20" viewBox="0 0 20 20" fill="none" xmlns="http://www.w3.org/2000/svg">
<g clip-path="url(#clip0_248_135)">
<path d="M6.66681 9.99988C9.42437 9.99988 11.6669 7.75738 11.6669 4.99988C11.6669 2.24238 9.42437 -0.00012207 6.66681 -0.00012207C3.90925 -0.00012207 1.6667 2.24238 1.6667 4.99988C1.6667 7.75738 3.90925 9.99988 6.66681 9.99988ZM6.66681 11.6665C2.9909 11.6665 0 14.6574 0 18.3332V19.1665C0 19.6265 0.373341 19.9999 0.833351 19.9999H12.5003C12.9603 19.9999 13.3336 19.6265 13.3336 19.1665V18.3332C13.3336 14.6574 10.3427 11.6665 6.66681 11.6665ZM19.7479 8.51404L16.4212 11.7432C15.937 12.2282 15.2812 12.499 14.5836 12.499C13.8861 12.499 13.2303 12.2274 12.7378 11.7349L11.0952 10.1899C10.7602 9.87488 10.7444 9.34738 11.0602 9.01154C11.3761 8.67654 11.9028 8.66071 12.2386 8.97654L13.8986 10.539C14.2911 10.9307 14.8945 10.9132 15.2512 10.5565L18.5862 7.31821C18.9162 6.99738 19.4437 7.00571 19.7646 7.33571C20.0854 7.66571 20.0771 8.19404 19.7471 8.51404H19.7479Z" fill="#03BF93"/>
</g>
<defs>
<clipPath id="clip0_248_135">
<rect width="20" height="20" fill="white"/>
</clipPath>
</defs>
</svg>
