<svg width="15" height="14" viewBox="0 0 15 14" fill="none" xmlns="http://www.w3.org/2000/svg">
<g clip-path="url(#clip0_242_5150)">
<path d="M11.6199 1.16374H11.0169V0.580404C11.0169 0.25782 10.7468 -0.00292969 10.414 -0.00292969C10.0812 -0.00292969 9.81105 0.25782 9.81105 0.580404V1.16374H4.98756V0.580404C4.98756 0.25782 4.71744 -0.00292969 4.38462 -0.00292969C4.0518 -0.00292969 3.78168 0.25782 3.78168 0.580404V1.16374H3.17875C1.51645 1.16374 0.164062 2.47215 0.164062 4.0804V11.0804C0.164062 12.6887 1.51645 13.9971 3.17875 13.9971H11.6199C13.2822 13.9971 14.6345 12.6887 14.6345 11.0804V4.0804C14.6345 2.47215 13.2822 1.16374 11.6199 1.16374ZM3.17875 2.3304H11.6199C12.6171 2.3304 13.4287 3.11557 13.4287 4.0804V4.66374H1.36994V4.0804C1.36994 3.11557 2.18149 2.3304 3.17875 2.3304ZM1.36994 5.8304H13.4287V6.17399C13.4196 6.18157 9.79597 9.68624 9.79597 9.68624C9.48184 9.99015 8.93438 9.99015 8.61964 9.68624L8.23738 9.31582C7.46743 8.5709 6.1253 8.5709 5.35535 9.31582L2.08924 12.4757C1.65271 12.1561 1.36994 11.6492 1.36994 11.0798V5.82982V5.8304ZM11.6199 12.8304H3.42836L6.2085 10.1412C6.52263 9.83732 7.0701 9.83732 7.38483 10.1412L7.76709 10.5117C8.53704 11.2566 9.87918 11.2566 10.6491 10.5117L13.4287 7.82249V11.081C13.4287 12.0458 12.6171 12.8304 11.6199 12.8304ZM2.57581 7.87207C2.57581 7.38907 2.98098 6.99707 3.48021 6.99707C3.97944 6.99707 4.38462 7.38907 4.38462 7.87207C4.38462 8.35507 3.97944 8.74707 3.48021 8.74707C2.98098 8.74707 2.57581 8.35507 2.57581 7.87207Z" fill="#808080"/>
</g>
<defs>
<clipPath id="clip0_242_5150">
<rect width="14.4705" height="14" fill="white" transform="translate(0.164062 -0.00292969)"/>
</clipPath>
</defs>
</svg>
