<svg width="23" height="15" viewBox="0 0 23 15" fill="none" xmlns="http://www.w3.org/2000/svg">
<path d="M21.7987 11.577L22.3293 14.3435L19.6428 13.8004C17.7108 15.0838 15.3 15.3543 13.142 14.5301C17.3471 11.1677 17.2951 3.87217 13.1254 0.49475C19.3359 -1.94912 25.7124 5.22132 21.7987 11.577ZM12.5254 12.8159C11.3345 14.0198 9.77781 14.774 8.11203 14.9532C6.44642 15.1314 4.77143 14.7252 3.36196 13.8013L0.670111 14.3433L1.19975 11.5739C-3.05918 4.65584 4.88449 -3.22617 11.5076 1.36884C13.282 2.63745 14.4202 4.64335 14.616 6.8507C14.8129 9.05697 14.048 11.2396 12.5254 12.8159ZM3.92898 6.66388C3.48226 6.67979 3.12883 7.05528 3.12883 7.51245C3.12883 7.96961 3.48226 8.3451 3.92898 8.36101C4.37674 8.3451 4.73017 7.96961 4.73017 7.51245C4.73017 7.05528 4.37674 6.6798 3.92898 6.66388ZM7.34093 6.66388C6.89421 6.67979 6.53974 7.05528 6.53974 7.51245C6.53974 7.96961 6.89421 8.3451 7.34093 8.36101C7.78765 8.3451 8.14212 7.96961 8.14212 7.51245C8.14212 7.05528 7.78765 6.6798 7.34093 6.66388ZM10.699 6.66388C10.2523 6.67979 9.89785 7.05528 9.89785 7.51245C9.89785 7.96961 10.2523 8.3451 10.699 8.36101C11.1458 8.3451 11.5002 7.96961 11.5002 7.51245C11.5002 7.05528 11.1458 6.6798 10.699 6.66388Z" fill="#DDDDDD"/>
</svg>
