<svg width="36" height="24" viewBox="0 0 36 24" fill="none" xmlns="http://www.w3.org/2000/svg">
<path d="M34.1196 17.8108L34.9502 22.0669L30.7452 21.2314C27.7213 23.2059 23.9478 23.622 20.5701 22.3541C27.152 17.181 27.0706 5.95719 20.5442 0.761153C30.2649 -2.99864 40.2455 8.03281 34.1196 17.8108ZM19.6049 19.7168C17.7409 21.5689 15.3044 22.7292 12.6971 23.005C10.0901 23.2791 7.46832 22.6541 5.26219 21.2328L1.04887 22.0667L1.87787 17.806C-4.78828 7.16283 7.64529 -4.96334 18.0119 2.10591C20.7892 4.05762 22.5707 7.14361 22.8772 10.5395C23.1855 13.9338 21.9881 17.2917 19.6049 19.7168ZM6.14971 10.2521C5.4505 10.2766 4.8973 10.8543 4.8973 11.5576C4.8973 12.2609 5.4505 12.8386 6.14971 12.8631C6.85055 12.8386 7.40374 12.2609 7.40374 11.5576C7.40374 10.8543 6.85055 10.2766 6.14971 10.2521ZM11.4902 10.2521C10.7909 10.2766 10.2361 10.8543 10.2361 11.5576C10.2361 12.2609 10.7909 12.8386 11.4902 12.8631C12.1894 12.8386 12.7442 12.2609 12.7442 11.5576C12.7442 10.8543 12.1894 10.2766 11.4902 10.2521ZM16.7463 10.2521C16.0471 10.2766 15.4923 10.8543 15.4923 11.5576C15.4923 12.2609 16.0471 12.8386 16.7463 12.8631C17.4455 12.8386 18.0004 12.2609 18.0004 11.5576C18.0004 10.8543 17.4455 10.2766 16.7463 10.2521Z" fill="#666666"/>
</svg>
