<svg width="15" height="14" viewBox="0 0 15 14" fill="none" xmlns="http://www.w3.org/2000/svg">
<path d="M7.40818 0.000488281C5.97543 0.000488281 4.57485 0.411031 3.38356 1.1802C2.19228 1.94937 1.26378 3.04262 0.715491 4.3217C0.167201 5.60079 0.0237437 7.00825 0.303259 8.36612C0.582775 9.72399 1.27271 10.9713 2.28582 11.9502C3.29892 12.9292 4.5897 13.5959 5.99492 13.866C7.40014 14.1361 8.85669 13.9975 10.1804 13.4676C11.5041 12.9378 12.6354 12.0406 13.4314 10.8895C14.2274 9.73834 14.6523 8.38496 14.6523 7.00049C14.6502 5.14459 13.8863 3.36528 12.5282 2.05296C11.1702 0.740638 9.3288 0.00249558 7.40818 0.000488281ZM8.01185 6.92991C8.01192 7.02879 7.98597 7.12606 7.93644 7.21259C7.88692 7.29912 7.81544 7.37207 7.72873 7.42457L5.41061 8.82457C5.34323 8.86525 5.26821 8.8927 5.18985 8.90537C5.11148 8.91803 5.03131 8.91565 4.95389 8.89837C4.87648 8.88109 4.80334 8.84925 4.73867 8.80466C4.67399 8.76007 4.61903 8.7036 4.57694 8.63849C4.53484 8.57337 4.50643 8.50089 4.49333 8.42516C4.48022 8.34944 4.48268 8.27196 4.50056 8.19716C4.51844 8.12235 4.5514 8.05168 4.59754 7.98918C4.64369 7.92669 4.70212 7.87358 4.76951 7.83291L6.8045 6.60674V4.08382C6.8045 3.92911 6.8681 3.78074 6.98131 3.67134C7.09452 3.56195 7.24807 3.50049 7.40818 3.50049C7.56828 3.50049 7.72183 3.56195 7.83504 3.67134C7.94825 3.78074 8.01185 3.92911 8.01185 4.08382V6.92991Z" fill="#808080"/>
</svg>
