<svg width="15" height="15" viewBox="0 0 15 15" fill="none" xmlns="http://www.w3.org/2000/svg">
<path d="M14.2288 1.64782C14.0004 1.53125 13.7488 1.50061 13.5062 1.5598C13.2636 1.61899 13.0408 1.76534 12.8663 1.98021L11.25 3.96075L8.38375 0.448473C8.14934 0.161316 7.83146 0 7.5 0C7.16854 0 6.85066 0.161316 6.61625 0.448473L3.75 3.96075L2.13375 1.98021C1.95894 1.76606 1.73623 1.62023 1.49379 1.56115C1.25135 1.50208 1.00006 1.53241 0.771682 1.64832C0.543307 1.76423 0.348103 1.9605 0.210748 2.21233C0.0733926 2.46417 5.27804e-05 2.76025 0 3.06315L0 11.1707C0.000992411 12.1859 0.330551 13.1592 0.916387 13.8771C1.50222 14.5949 2.2965 14.9988 3.125 15H11.875C12.7035 14.9988 13.4978 14.5949 14.0836 13.8771C14.6694 13.1592 14.999 12.1859 15 11.1707V3.06315C15.0001 2.76023 14.9268 2.46408 14.7895 2.21216C14.6523 1.96023 14.4571 1.76385 14.2288 1.64782Z" fill="#FFE812"/>
<path d="M14.2288 1.64782C14.0004 1.53125 13.7488 1.50061 13.5062 1.5598C13.2636 1.61899 13.0408 1.76534 12.8663 1.98021L11.25 3.96075L8.38375 0.448473C8.14934 0.161316 7.83146 0 7.5 0C7.16854 0 6.85066 0.161316 6.61625 0.448473L3.75 3.96075L2.13375 1.98021C1.95894 1.76606 1.73623 1.62023 1.49379 1.56115C1.25135 1.50208 1.00006 1.53241 0.771682 1.64832C0.543307 1.76423 0.348103 1.9605 0.210748 2.21233C0.0733926 2.46417 5.27804e-05 2.76025 0 3.06315L0 11.1707C0.000992411 12.1859 0.330551 13.1592 0.916387 13.8771C1.50222 14.5949 2.2965 14.9988 3.125 15H11.875C12.7035 14.9988 13.4978 14.5949 14.0836 13.8771C14.6694 13.1592 14.999 12.1859 15 11.1707V3.06315C15.0001 2.76023 14.9268 2.46408 14.7895 2.21216C14.6523 1.96023 14.4571 1.76385 14.2288 1.64782ZM13.75 11.1707C13.75 11.78 13.5525 12.3644 13.2008 12.7953C12.8492 13.2262 12.3723 13.4683 11.875 13.4683H3.125C2.62772 13.4683 2.15081 13.2262 1.79917 12.7953C1.44754 12.3644 1.25 11.78 1.25 11.1707V3.06315L3.30813 5.58516C3.42533 5.72874 3.58427 5.8094 3.75 5.8094C3.91573 5.8094 4.07467 5.72874 4.19187 5.58516L7.5 1.53141L10.8081 5.58516C10.9253 5.72874 11.0843 5.8094 11.25 5.8094C11.4157 5.8094 11.5747 5.72874 11.6919 5.58516L13.75 3.06315V11.1707Z" fill="#3D4341"/>
</svg>
