<svg width="16" height="12" viewBox="0 0 16 12" fill="none" xmlns="http://www.w3.org/2000/svg">
<path d="M14 0H2C1.46957 0 0.960859 0.172402 0.585786 0.47928C0.210714 0.786157 0 1.20237 0 1.63636L0 12H16V1.63636C16 1.20237 15.7893 0.786157 15.4142 0.47928C15.0391 0.172402 14.5304 0 14 0ZM2 1.09091H14C14.1768 1.09091 14.3464 1.14838 14.4714 1.25067C14.5964 1.35296 14.6667 1.4917 14.6667 1.63636V2.00018L9.41467 6.29782C9.03895 6.60399 8.53028 6.77589 8 6.77589C7.46972 6.77589 6.96105 6.60399 6.58533 6.29782L1.33333 2.00018V1.63636C1.33333 1.4917 1.40357 1.35296 1.5286 1.25067C1.65362 1.14838 1.82319 1.09091 2 1.09091ZM1.33333 10.9091V3.54545L5.64267 7.06909C6.26842 7.57978 7.11617 7.86657 8 7.86657C8.88383 7.86657 9.73158 7.57978 10.3573 7.06909L14.6667 3.54545V10.9091H1.33333Z" fill="#0E76F5"/>
</svg>
