<svg width="20" height="15" viewBox="0 0 20 15" fill="none" xmlns="http://www.w3.org/2000/svg">
<path d="M10.0013 15C7.64861 14.995 5.37774 14.161 3.61016 12.6523C2.28582 11.5375 1.17441 10.2043 0.325638 8.71484C0.112097 8.34387 0 7.92701 0 7.50195C0 7.07689 0.112097 6.65809 0.325638 6.28711C1.175 4.79742 2.28631 3.46373 3.61016 2.34766C5.37468 0.834716 7.647 0 10.0003 0C12.3536 0 14.6259 0.834716 16.3904 2.34766C17.7149 3.46239 18.8265 4.79637 19.673 6.28711C19.8865 6.65809 19.9986 7.07689 19.9986 7.50195C19.9986 7.92701 19.8865 8.34387 19.673 8.71484C18.8274 10.2059 17.7157 11.5387 16.3904 12.6523C14.6234 14.1605 12.3532 14.995 10.0013 15ZM10.0013 3.5C9.1871 3.5 8.3918 3.7343 7.71481 4.17383C7.03782 4.61335 6.50976 5.23785 6.19818 5.96875C5.88659 6.69965 5.80516 7.50533 5.964 8.28125C6.12284 9.05717 6.51494 9.76871 7.09067 10.3281C7.6664 10.8875 8.39971 11.2695 9.19827 11.4238C9.99683 11.5782 10.825 11.4981 11.5772 11.1953C12.3295 10.8926 12.9722 10.3805 13.4245 9.72266C13.8769 9.06486 14.118 8.29113 14.118 7.5C14.1161 6.4397 13.6816 5.42357 12.9099 4.67383C12.1383 3.92408 11.0925 3.50185 10.0013 3.5Z" fill="#BFBFBF"/>
<path d="M9.99952 9.5C11.1363 9.5 12.0579 8.60457 12.0579 7.5C12.0579 6.39543 11.1363 5.5 9.99952 5.5C8.86272 5.5 7.94116 6.39543 7.94116 7.5C7.94116 8.60457 8.86272 9.5 9.99952 9.5Z" fill="#BFBFBF"/>
</svg>
