<svg width="24" height="24" viewBox="0 0 24 24" fill="none" xmlns="http://www.w3.org/2000/svg">
<path fill-rule="evenodd" clip-rule="evenodd" d="M11.9995 0C5.37278 0 0 5.50781 0 12.3034C0 17.7394 3.43786 22.3511 8.20566 23.9782C8.80563 24.092 9.02562 23.7117 9.02562 23.3866C9.02562 23.0934 9.01462 22.1245 9.00962 21.0962C5.67176 21.8405 4.96679 19.6444 4.96679 19.6444C4.42082 18.2223 3.63485 17.844 3.63485 17.844C2.54589 17.0801 3.71685 17.0966 3.71685 17.0966C4.92179 17.1837 5.55577 18.3648 5.55577 18.3648C6.62572 20.2452 8.36265 19.7018 9.04762 19.387C9.15562 18.5914 9.46661 18.049 9.80959 17.7415C7.1447 17.4308 4.34282 16.3758 4.34282 11.6615C4.34282 10.3184 4.8118 9.22035 5.57977 8.35911C5.45477 8.04845 5.04379 6.79761 5.69576 5.10282C5.69576 5.10282 6.70372 4.77268 8.99662 6.36391C9.95358 6.09119 10.9795 5.95483 11.9995 5.9497C13.0195 5.95483 14.0464 6.09119 15.0054 6.36391C17.2953 4.77165 18.3022 5.10282 18.3022 5.10282C18.9552 6.79761 18.5442 8.04845 18.4202 8.35911C19.1892 9.22035 19.6552 10.3184 19.6552 11.6615C19.6552 16.3871 16.8483 17.4277 14.1764 17.7322C14.6064 18.1136 14.9904 18.8631 14.9904 20.0104C14.9904 21.657 14.9764 22.9817 14.9764 23.3866C14.9764 23.7137 15.1924 24.0982 15.8003 23.9772C20.5661 22.348 24 17.7384 24 12.3044C23.999 5.50883 18.6262 0 11.9995 0Z" fill="#808080"/>
<path d="M4.54453 17.666C4.51853 17.7275 4.42454 17.746 4.33854 17.7039C4.25154 17.664 4.20255 17.5799 4.23054 17.5194C4.25654 17.4569 4.35054 17.4394 4.43754 17.4815C4.52453 17.5204 4.57453 17.6045 4.54453 17.666Z" fill="#808080"/>
<path d="M5.03132 18.2215C4.97432 18.2759 4.86233 18.2502 4.78633 18.1652C4.70733 18.079 4.69333 17.9642 4.75133 17.9099C4.81033 17.8555 4.91833 17.8811 4.99732 17.9673C5.07632 18.0524 5.09132 18.1662 5.03132 18.2215Z" fill="#808080"/>
<path d="M5.5039 18.929C5.42991 18.9813 5.30991 18.9321 5.23591 18.8234C5.16192 18.7137 5.16192 18.5824 5.23791 18.5302C5.31191 18.4779 5.43091 18.525 5.5059 18.6337C5.5789 18.7444 5.5789 18.8757 5.5039 18.929Z" fill="#808080"/>
<path d="M6.15145 19.6146C6.08545 19.6894 5.94546 19.6689 5.84346 19.5674C5.73846 19.468 5.70947 19.3275 5.77546 19.2527C5.84246 19.1778 5.98345 19.1994 6.08645 19.2998C6.19045 19.3993 6.22144 19.5408 6.15145 19.6146Z" fill="#808080"/>
<path d="M7.04608 20.0118C7.01708 20.1082 6.88208 20.1523 6.74609 20.1112C6.6101 20.0692 6.5211 19.9564 6.5491 19.859C6.5771 19.7616 6.71309 19.7165 6.85008 19.7606C6.98508 19.8016 7.07408 19.9144 7.04608 20.0118Z" fill="#808080"/>
<path d="M8.03063 20.0853C8.03363 20.1868 7.91863 20.2708 7.77564 20.2729C7.63264 20.276 7.51565 20.1939 7.51465 20.0945C7.51465 19.992 7.62764 19.9089 7.77064 19.9058C7.91363 19.9028 8.03063 19.9848 8.03063 20.0853Z" fill="#808080"/>
<path d="M8.94251 19.926C8.95951 20.0244 8.86051 20.1269 8.71852 20.1536C8.57953 20.1802 8.45053 20.1187 8.43253 20.0203C8.41553 19.9188 8.51653 19.8173 8.65552 19.7906C8.79652 19.765 8.92451 19.8244 8.94251 19.926Z" fill="#808080"/>
</svg>
