<svg width="41" height="41" viewBox="0 0 41 41" fill="none" xmlns="http://www.w3.org/2000/svg">
<g clip-path="url(#clip0_244_6163)">
<path d="M40.1272 37.06C40.1272 38.7546 38.7536 40.1282 37.059 40.1282H3.92267C2.22812 40.1282 0.854492 38.7546 0.854492 37.06V3.92365C0.854492 2.22909 2.22812 0.855469 3.92267 0.855469H37.059C38.7536 0.855469 40.1272 2.22909 40.1272 3.92365V37.06Z" fill="#FFE812"/>
<path d="M20.4907 6.37891C11.6792 6.37891 4.53613 12.011 4.53613 18.9585C4.53613 23.4501 7.52239 27.3913 12.0145 29.6169C11.7701 30.4597 10.4441 35.0389 10.3913 35.3987C10.3913 35.3987 10.3595 35.669 10.5346 35.7721C10.7096 35.8752 10.9155 35.7951 10.9155 35.7951C11.4175 35.725 16.7363 31.9889 17.6569 31.3401C18.5766 31.4703 19.5236 31.538 20.4907 31.538C29.3022 31.538 36.4452 25.906 36.4452 18.9585C36.4452 12.011 29.3022 6.37891 20.4907 6.37891Z" fill="black"/>
<path d="M11.6696 23.3491C11.162 23.3491 10.7492 22.9548 10.7492 22.47V17.0018H9.31294C8.81482 17.0018 8.40967 16.5974 8.40967 16.1005C8.40967 15.6036 8.81497 15.1992 9.31294 15.1992H14.0263C14.5244 15.1992 14.9296 15.6036 14.9296 16.1005C14.9296 16.5974 14.5242 17.0018 14.0263 17.0018H12.5901V22.47C12.5901 22.9548 12.1772 23.3491 11.6696 23.3491ZM19.7408 23.3371C19.3569 23.3371 19.0633 23.1812 18.9748 22.9306L18.519 21.7374L15.7122 21.7372L15.2562 22.9312C15.168 23.1814 14.8745 23.3371 14.4907 23.3371C14.2888 23.3373 14.0892 23.294 13.9055 23.2101C13.6518 23.093 13.4079 22.7712 13.6874 21.903L15.8891 16.1079C16.0442 15.6671 16.5153 15.213 17.1149 15.1994C17.7161 15.2129 18.1872 15.6671 18.3426 16.1088L20.5434 21.9014C20.8235 22.7715 20.5796 23.0935 20.3259 23.2102C20.1422 23.294 19.9426 23.3373 19.7408 23.3371ZM18.035 20.1069L17.1156 17.4951L16.1963 20.1069H18.035ZM22.0247 23.2148C21.5383 23.2148 21.1426 22.8362 21.1426 22.3711V16.1197C21.1426 15.612 21.5642 15.1992 22.0823 15.1992C22.6003 15.1992 23.0219 15.612 23.0219 16.1197V21.5273H24.9779C25.4643 21.5273 25.86 21.906 25.86 22.3711C25.86 22.8362 25.4643 23.2148 24.9779 23.2148H22.0247ZM27.1385 23.3371C26.6308 23.3371 26.218 22.9243 26.218 22.4167V16.1197C26.218 15.612 26.6308 15.1992 27.1385 15.1992C27.6461 15.1992 28.0589 15.612 28.0589 16.1197V18.098L30.627 15.53C30.7591 15.3979 30.9406 15.3252 31.1375 15.3252C31.3673 15.3252 31.5981 15.4243 31.771 15.597C31.9322 15.7581 32.0284 15.9653 32.0416 16.1806C32.0549 16.3977 31.9827 16.5966 31.8385 16.741L29.7409 18.8382L32.0066 21.8398C32.0797 21.9361 32.133 22.046 32.1634 22.1631C32.1937 22.2801 32.2005 22.402 32.1833 22.5217C32.1669 22.6415 32.1269 22.7569 32.0656 22.8611C32.0043 22.9653 31.9229 23.0563 31.8262 23.1288C31.667 23.2498 31.4725 23.315 31.2725 23.3146C31.1299 23.3152 30.9891 23.2825 30.8614 23.2189C30.7338 23.1554 30.6227 23.0628 30.5372 22.9487L28.3786 20.0885L28.0592 20.4079V22.4162C28.0589 22.6603 27.9618 22.8944 27.7892 23.067C27.6166 23.2397 27.3826 23.3368 27.1385 23.3371Z" fill="#FFE812"/>
</g>
<defs>
<clipPath id="clip0_244_6163">
<rect x="0.854492" y="0.855469" width="39.2727" height="39.2727" rx="19.6364" fill="white"/>
</clipPath>
</defs>
</svg>
