<svg width="70" height="30" viewBox="0 0 70 30" fill="none" xmlns="http://www.w3.org/2000/svg">
<g clip-path="url(#clip0_234_4717)">
<path d="M12.311 14.4529L12.3069 14.4485L6.66908 8.97929C7.18655 7.89348 7.43326 6.78237 7.43326 5.62287V4.65635C7.43326 4.1452 6.99775 3.84766 6.66458 3.84766C6.19 3.84766 5.921 4.26111 5.921 4.65635V5.62287C5.921 6.98259 5.39972 8.47659 4.50275 9.99511C3.60616 11.513 2.33666 13.0513 0.846588 14.4981C0.494572 14.8457 0.544364 15.3583 0.796003 15.6068L0.799318 15.6101L0.803075 15.6129C1.13742 15.8605 1.57537 15.747 1.81771 15.5079C3.62653 13.746 5.07065 11.9584 6.05244 10.2636L11.232 15.232C11.3782 15.4268 11.5545 15.5293 11.7295 15.5569C11.9046 15.5846 12.0732 15.5364 12.1999 15.4393C12.35 15.3312 12.4546 15.1744 12.4827 14.9977C12.511 14.8195 12.4605 14.6273 12.311 14.4529ZM19.3121 10.4894H16.7684V4.75548C16.7684 4.49427 16.6886 4.30153 16.5495 4.17473C16.4114 4.04884 16.224 3.99635 16.0248 3.99635C15.7888 3.99635 15.5991 4.05469 15.4693 4.18647C15.3398 4.3179 15.2812 4.51087 15.2812 4.75548V17.4442C15.2812 17.6614 15.3771 17.8626 15.5154 18.0091C15.6529 18.1549 15.8387 18.2529 16.0248 18.2529C16.2401 18.2529 16.4265 18.126 16.556 17.9686C16.6853 17.8114 16.7684 17.6115 16.7684 17.4442V11.7598H19.3121C19.5005 11.7598 19.6536 11.7062 19.7578 11.585C19.86 11.466 19.9052 11.2929 19.9052 11.075C19.9052 10.8915 19.8587 10.7419 19.7541 10.6386C19.6495 10.5353 19.498 10.4894 19.3121 10.4894ZM3.79458 20.6907V17.5433C3.79458 17.3612 3.70308 17.1779 3.56137 17.0413C3.41907 16.904 3.22113 16.809 3.00081 16.809C2.57851 16.809 2.30741 17.1952 2.30741 17.5433V21.1864C2.30741 21.797 2.41374 22.194 2.68377 22.4337C2.95182 22.6716 3.36433 22.7385 3.9293 22.7385H16.6521C16.8547 22.7385 17.0239 22.7143 17.1424 22.6303C17.2667 22.542 17.3204 22.3996 17.3204 22.2024C17.3204 21.949 17.2697 21.7759 17.1473 21.6701C17.0271 21.5662 16.8541 21.5424 16.6521 21.5424H4.63194C4.43141 21.5424 4.27982 21.5362 4.16388 21.5152C4.04865 21.4944 3.97586 21.4604 3.92638 21.4103C3.8767 21.36 3.84265 21.2856 3.82183 21.1678C3.80094 21.0495 3.79458 20.8949 3.79458 20.6907Z" fill="#808080" stroke="#808080" stroke-width="0.2"/>
<path fill-rule="evenodd" clip-rule="evenodd" d="M36.7441 4.07707C36.7441 4.74149 36.8937 5.14752 37.2674 5.4059C38.0897 5.9965 39.809 5.51664 40.3696 5.29517H40.407C40.407 5.25826 40.4444 5.25826 40.4818 5.25826H40.5191H40.6313H40.6686C40.6873 5.25826 40.706 5.26749 40.7247 5.27672C40.7434 5.28594 40.7621 5.29517 40.7808 5.29517C40.7808 5.29517 40.8181 5.29517 40.8555 5.33208H40.8929C40.9088 5.33208 40.9179 5.33208 40.926 5.33492C40.937 5.33874 40.9462 5.34777 40.9676 5.369L41.005 5.4059V5.44282C41.1172 5.62738 42.3132 7.14081 43.9204 6.10725C44.3315 5.84886 44.4811 5.47973 44.4063 4.99987C44.3315 4.4831 43.9578 4.11398 43.8456 4.07707C43.6588 4.07707 43.4719 4.00325 43.3597 3.81868C43.2476 3.67104 43.2476 3.44957 43.3597 3.265C43.8456 2.34219 43.1728 1.71469 42.9486 1.56704C42.388 1.161 41.4909 1.05026 40.7808 1.7516C40.6313 1.86234 40.4818 1.93616 40.2949 1.89924C40.108 1.89924 39.9585 1.78851 39.8838 1.64086C39.51 1.05026 38.6877 0.976437 38.0897 1.27174C37.8654 1.34556 37.4542 1.64086 37.4542 2.12072C37.6411 2.08381 37.828 2.08381 38.0149 2.12072C38.3139 2.15764 38.5382 2.45293 38.5008 2.74822C38.4634 3.04352 38.1644 3.265 37.8654 3.22809C37.5664 3.19117 37.23 3.30191 37.0058 3.48647C36.8937 3.59721 36.7441 3.78177 36.7441 4.07707Z" fill="#808080"/>
<path fill-rule="evenodd" clip-rule="evenodd" d="M36.7441 4.07707C36.7441 4.74149 36.8937 5.14752 37.2674 5.4059C38.0897 5.9965 39.809 5.51664 40.3696 5.29517H40.407C40.407 5.25826 40.4444 5.25826 40.4818 5.25826H40.5191H40.6313H40.6686C40.6873 5.25826 40.706 5.26749 40.7247 5.27672C40.7434 5.28594 40.7621 5.29517 40.7808 5.29517C40.7808 5.29517 40.8181 5.29517 40.8555 5.33208H40.8929C40.9088 5.33208 40.9179 5.33208 40.926 5.33492C40.937 5.33874 40.9462 5.34777 40.9676 5.369L41.005 5.4059V5.44282C41.1172 5.62738 42.3132 7.14081 43.9204 6.10725C44.3315 5.84886 44.4811 5.47973 44.4063 4.99987C44.3315 4.4831 43.9578 4.11398 43.8456 4.07707C43.6588 4.07707 43.4719 4.00325 43.3597 3.81868C43.2476 3.67104 43.2476 3.44957 43.3597 3.265C43.8456 2.34219 43.1728 1.71469 42.9486 1.56704C42.388 1.161 41.4909 1.05026 40.7808 1.7516C40.6313 1.86234 40.4818 1.93616 40.2949 1.89924C40.108 1.89924 39.9585 1.78851 39.8838 1.64086C39.51 1.05026 38.6877 0.976437 38.0897 1.27174C37.8654 1.34556 37.4542 1.64086 37.4542 2.12072C37.6411 2.08381 37.828 2.08381 38.0149 2.12072C38.3139 2.15764 38.5382 2.45293 38.5008 2.74822C38.4634 3.04352 38.1644 3.265 37.8654 3.22809C37.5664 3.19117 37.23 3.30191 37.0058 3.48647C36.8937 3.59721 36.7441 3.78177 36.7441 4.07707Z" fill="#808080"/>
<path fill-rule="evenodd" clip-rule="evenodd" d="M36.7441 4.07707C36.7441 4.74149 36.8937 5.14752 37.2674 5.4059C38.0897 5.9965 39.809 5.51664 40.3696 5.29517H40.407C40.407 5.25826 40.4444 5.25826 40.4818 5.25826H40.5191H40.6313H40.6686C40.6873 5.25826 40.706 5.26749 40.7247 5.27672C40.7434 5.28594 40.7621 5.29517 40.7808 5.29517C40.7808 5.29517 40.8181 5.29517 40.8555 5.33208H40.8929C40.9088 5.33208 40.9179 5.33208 40.926 5.33492C40.937 5.33874 40.9462 5.34777 40.9676 5.369L41.005 5.4059V5.44282C41.1172 5.62738 42.3132 7.14081 43.9204 6.10725C44.3315 5.84886 44.4811 5.47973 44.4063 4.99987C44.3315 4.4831 43.9578 4.11398 43.8456 4.07707C43.6588 4.07707 43.4719 4.00325 43.3597 3.81868C43.2476 3.67104 43.2476 3.44957 43.3597 3.265C43.8456 2.34219 43.1728 1.71469 42.9486 1.56704C42.388 1.161 41.4909 1.05026 40.7808 1.7516C40.6313 1.86234 40.4818 1.93616 40.2949 1.89924C40.108 1.89924 39.9585 1.78851 39.8838 1.64086C39.51 1.05026 38.6877 0.976437 38.0897 1.27174C37.8654 1.34556 37.4542 1.64086 37.4542 2.12072C37.6411 2.08381 37.828 2.08381 38.0149 2.12072C38.3139 2.15764 38.5382 2.45293 38.5008 2.74822C38.4634 3.04352 38.1644 3.265 37.8654 3.22809C37.5664 3.19117 37.23 3.30191 37.0058 3.48647C36.8937 3.59721 36.7441 3.78177 36.7441 4.07707Z" fill="#808080"/>
<path fill-rule="evenodd" clip-rule="evenodd" d="M37.4053 4.07707C37.4053 4.74149 37.5548 5.14752 37.9286 5.4059C38.7508 5.9965 40.4702 5.51664 41.0307 5.29517H41.0681C41.0681 5.25826 41.1056 5.25826 41.1429 5.25826H41.1803H41.2924H41.3298C41.3485 5.25826 41.3671 5.26749 41.3858 5.27672C41.4045 5.28594 41.4232 5.29517 41.4419 5.29517C41.4419 5.29517 41.4793 5.29517 41.5167 5.33208H41.554C41.5699 5.33208 41.5791 5.33208 41.5872 5.33492C41.5981 5.33874 41.6073 5.34777 41.6288 5.369L41.6662 5.4059V5.44282C41.7783 5.62738 42.9744 7.14081 44.5815 6.10725C44.9927 5.84886 45.1422 5.47973 45.0674 4.99987C44.9927 4.4831 44.6189 4.11398 44.5068 4.07707C44.3199 4.07707 44.133 4.00325 44.0209 3.81868C43.9087 3.67104 43.9087 3.44957 44.0209 3.265C44.5068 2.34219 43.834 1.71469 43.6098 1.56704C43.0491 1.161 42.1521 1.05026 41.4419 1.7516C41.2924 1.86234 41.1429 1.93616 40.9561 1.89924C40.7692 1.89924 40.6197 1.78851 40.5449 1.64086C40.1711 1.05026 39.3488 0.976437 38.7508 1.27174C38.5265 1.34556 38.1154 1.64086 38.1154 2.12072C38.3023 2.08381 38.4892 2.08381 38.676 2.12072C38.9751 2.15764 39.1993 2.45293 39.1619 2.74822C39.1246 3.04352 38.8255 3.265 38.5265 3.22809C38.2275 3.19117 37.8912 3.30191 37.6669 3.48647C37.5548 3.59721 37.4053 3.78177 37.4053 4.07707Z" fill="#808080"/>
<path fill-rule="evenodd" clip-rule="evenodd" d="M41.7773 7.10387C42.2632 7.39917 42.8238 7.62065 43.4966 7.62065C44.0199 7.62065 44.6179 7.473 45.2159 7.06696C46.113 6.51327 46.4494 5.47971 46.0756 4.44617C45.9261 3.96631 45.5897 3.52336 45.2159 3.22807C45.4776 2.26835 45.1412 1.30863 44.2815 0.681124C43.4593 0.0536127 42.151 -0.0940377 41.1045 0.570383C40.3196 -0.130949 39.1609 -0.130948 38.3012 0.275087C37.3295 0.718037 36.8436 1.64084 37.0679 2.60056C37.0492 2.61901 37.0305 2.62824 37.0118 2.63747C36.9931 2.6467 36.9744 2.65593 36.9557 2.67438C36.5446 3.04351 36.3203 3.52336 36.3203 4.07705C36.3203 5.11059 36.6567 5.84883 37.3295 6.3287C38.3386 7.03004 39.7963 6.80856 40.6934 6.58709C41.0268 6.38775 41.2527 6.44001 41.7773 7.10387ZM37.4043 4.07705C37.4043 4.74147 37.5538 5.1475 37.9275 5.40588C38.7498 5.99648 40.4691 5.51662 41.0297 5.29515H41.0671C41.0671 5.25824 41.1045 5.25824 41.1419 5.25824H41.1792H41.2914H41.3287C41.3474 5.25824 41.3661 5.26747 41.3848 5.27669C41.4035 5.28592 41.4222 5.29515 41.4409 5.29515C41.4409 5.29515 41.4783 5.29515 41.5156 5.33206H41.553C41.5689 5.33206 41.578 5.33206 41.5862 5.33489C41.5971 5.33872 41.6063 5.34775 41.6278 5.36898L41.6651 5.40588V5.4428C41.7773 5.62736 42.9734 7.14078 44.5805 6.10722C44.9917 5.84884 45.1412 5.47971 45.0664 4.99985C44.9917 4.48308 44.6179 4.11396 44.5058 4.07705C44.3189 4.07705 44.132 4.00323 44.0199 3.81866C43.9077 3.67102 43.9077 3.44954 44.0199 3.26498C44.5058 2.34217 43.833 1.71466 43.6088 1.56702C43.0481 1.16098 42.151 1.05024 41.4409 1.75158C41.2914 1.86232 41.1419 1.93613 40.955 1.89922C40.7682 1.89922 40.6186 1.78849 40.5439 1.64084C40.1701 1.05024 39.3478 0.976415 38.7498 1.27172C38.5255 1.34554 38.1144 1.64084 38.1144 2.1207C38.3012 2.08379 38.4881 2.08379 38.675 2.1207C38.974 2.15761 39.1983 2.4529 39.1609 2.7482C39.1235 3.0435 38.8245 3.26498 38.5255 3.22807C38.2265 3.19115 37.8902 3.30189 37.6659 3.48645C37.5538 3.59719 37.4043 3.78175 37.4043 4.07705Z" fill="#808080"/>
<path d="M41.9179 7.09289V9.53939L40.7002 8.91741V6.51236C41.0748 6.28843 41.3286 6.34714 41.9179 7.09289Z" fill="#808080"/>
<path d="M28.2999 14.4624C28.928 12.3037 29.3813 10.2157 29.3813 7.7294V6.19287C29.3813 5.50066 29.1959 5.0952 28.8327 4.87059C28.4786 4.65165 27.9701 4.61592 27.3579 4.61592H18.8509C18.6419 4.61592 18.4735 4.66089 18.3566 4.7583C18.2377 4.85738 18.1826 5.00178 18.1826 5.17679C18.1826 5.40812 18.2345 5.59379 18.3498 5.72196C18.4665 5.8516 18.6378 5.91113 18.8509 5.91113H27.0065C27.1755 5.91113 27.3141 5.91582 27.4277 5.9325C27.5414 5.94917 27.625 5.97715 27.6869 6.02011C27.8059 6.10263 27.869 6.25836 27.869 6.5894V7.87809C27.869 10.2747 27.6443 11.854 26.8941 14.25C26.8009 14.4755 26.8128 14.6934 26.9077 14.8668C27.0026 15.0406 27.1774 15.163 27.3959 15.2035L27.4019 15.2046H27.408C27.819 15.2046 28.193 14.8828 28.2999 14.4624ZM28.2999 14.4624L28.2996 14.4635L28.2362 14.4455L28.3002 14.4613L28.2999 14.4624ZM31.2931 19.3896L31.2998 19.3875L31.3059 19.384C31.4617 19.2942 31.6082 19.1768 31.7064 19.0363C31.8046 18.896 31.8555 18.7307 31.8149 18.5498C31.7986 18.3379 31.6666 18.2027 31.5048 18.1367C31.3452 18.0716 31.1532 18.0714 31.0005 18.1258C28.5422 18.8859 26.0599 19.3054 23.3084 19.3119V12.7107C23.3084 12.3097 23.0344 11.9764 22.615 11.9764C22.3961 11.9764 22.2262 12.0583 22.1123 12.1954C21.9998 12.3307 21.9467 12.514 21.9467 12.7107V19.312H17.9224C17.4974 19.312 17.1035 19.5774 17.1035 20.0216C17.1035 20.2634 17.2434 20.413 17.4196 20.4983C17.5925 20.582 17.8046 20.6072 17.9726 20.6072H22.866H22.8677C25.7561 20.5328 28.5992 20.2599 31.2931 19.3896ZM36.4671 11.5303H33.9735V4.55722C33.9735 4.2995 33.9081 4.11626 33.7719 3.99985C33.6377 3.88525 33.4485 3.84766 33.2299 3.84766C32.9765 3.84766 32.7841 3.8842 32.6577 4.00169C32.5302 4.12021 32.4863 4.30534 32.4863 4.55722V22.475C32.4863 22.9013 32.7859 23.259 33.2299 23.259C33.4438 23.259 33.6301 23.1397 33.7602 22.9881C33.89 22.8369 33.9735 22.6428 33.9735 22.475V12.8255H36.5173C36.7056 12.8255 36.8576 12.772 36.9615 12.6584C37.0643 12.546 37.1103 12.3851 37.1103 12.1903C37.1103 11.982 37.0575 11.8143 36.9443 11.6988C36.8306 11.583 36.6666 11.5303 36.4671 11.5303Z" fill="#808080"/>
<path d="M28.2999 14.4624C28.928 12.3037 29.3813 10.2157 29.3813 7.7294V6.19287C29.3813 5.50066 29.1959 5.0952 28.8327 4.87059C28.4786 4.65165 27.9701 4.61592 27.3579 4.61592H18.8509C18.6419 4.61592 18.4735 4.66089 18.3566 4.7583C18.2377 4.85738 18.1826 5.00178 18.1826 5.17679C18.1826 5.40812 18.2345 5.59379 18.3498 5.72196C18.4665 5.8516 18.6378 5.91113 18.8509 5.91113H27.0065C27.1755 5.91113 27.3141 5.91582 27.4277 5.9325C27.5414 5.94917 27.625 5.97715 27.6869 6.02011C27.8059 6.10263 27.869 6.25836 27.869 6.5894V7.87809C27.869 10.2747 27.6443 11.854 26.8941 14.25C26.8009 14.4755 26.8128 14.6934 26.9077 14.8668C27.0026 15.0406 27.1774 15.163 27.3959 15.2035L27.4019 15.2046H27.408C27.819 15.2046 28.193 14.8828 28.2999 14.4624ZM28.2999 14.4624L28.2996 14.4635L28.2362 14.4455L28.3002 14.4613L28.2999 14.4624ZM31.2931 19.3896L31.2998 19.3875L31.3059 19.384C31.4617 19.2942 31.6082 19.1768 31.7064 19.0363C31.8046 18.896 31.8555 18.7307 31.8149 18.5498C31.7986 18.3379 31.6666 18.2027 31.5048 18.1367C31.3452 18.0716 31.1532 18.0714 31.0005 18.1258C28.5422 18.8859 26.0599 19.3054 23.3084 19.3119V12.7107C23.3084 12.3097 23.0344 11.9764 22.615 11.9764C22.3961 11.9764 22.2262 12.0583 22.1123 12.1954C21.9998 12.3307 21.9467 12.514 21.9467 12.7107V19.312H17.9224C17.4974 19.312 17.1035 19.5774 17.1035 20.0216C17.1035 20.2634 17.2434 20.413 17.4196 20.4983C17.5925 20.582 17.8046 20.6072 17.9726 20.6072H22.866H22.8677C25.7561 20.5328 28.5992 20.2599 31.2931 19.3896ZM36.4671 11.5303H33.9735V4.55722C33.9735 4.2995 33.9081 4.11626 33.7719 3.99985C33.6377 3.88525 33.4485 3.84766 33.2299 3.84766C32.9765 3.84766 32.7841 3.8842 32.6577 4.00169C32.5302 4.12021 32.4863 4.30534 32.4863 4.55722V22.475C32.4863 22.9013 32.7859 23.259 33.2299 23.259C33.4438 23.259 33.6301 23.1397 33.7602 22.9881C33.89 22.8369 33.9735 22.6428 33.9735 22.475V12.8255H36.5173C36.7056 12.8255 36.8576 12.772 36.9615 12.6584C37.0643 12.546 37.1103 12.3851 37.1103 12.1903C37.1103 11.982 37.0575 11.8143 36.9443 11.6988C36.8306 11.583 36.6666 11.5303 36.4671 11.5303Z" stroke="#808080" stroke-width="0.2"/>
<path d="M53.2754 25.5362L53.2789 25.5344C54.9595 24.5787 57.2267 21.655 57.2267 16.5809V12.2688C57.2267 11.681 57.107 11.3189 56.8271 11.1108C56.5531 10.907 56.1421 10.8653 55.6048 10.8653H53.2961C53.1209 10.8653 52.9256 10.9182 52.7724 11.0224C52.618 11.1275 52.5023 11.2882 52.5023 11.5005C52.5023 11.7252 52.6242 11.892 52.7816 12.0001C52.9376 12.1073 53.1328 12.1605 53.2961 12.1605H55.2535C55.3788 12.1605 55.4703 12.1636 55.538 12.1733C55.6063 12.1831 55.6416 12.1985 55.662 12.2159C55.6807 12.2318 55.6949 12.2565 55.7036 12.3053C55.7127 12.3557 55.7144 12.4228 55.7144 12.5166V16.5314C55.7144 21.0498 54.0152 23.3808 52.4824 24.3575L52.4806 24.3586C52.3127 24.4734 52.1861 24.6013 52.1325 24.7602C52.078 24.9214 52.1029 25.1009 52.2082 25.3088L52.2099 25.312C52.3173 25.4975 52.463 25.6175 52.6488 25.6563C52.8321 25.6946 53.0424 25.6513 53.2754 25.5362ZM58.8478 26.9234L58.8526 26.9208L58.8569 26.9175C59.509 26.4251 60.236 25.4417 60.8622 24.124C61.4829 22.8179 62.0074 21.1777 62.2622 19.3475H64.924V28.997C64.924 29.1676 65.0225 29.362 65.1572 29.5113C65.2917 29.6602 65.4775 29.7809 65.6676 29.7809C66.082 29.7809 66.4363 29.428 66.4363 28.997V11.1288C66.4363 10.8842 66.3776 10.6907 66.2444 10.5591C66.1112 10.4275 65.9153 10.3696 65.6676 10.3696C65.4918 10.3696 65.3059 10.423 65.163 10.547C65.0184 10.6722 64.924 10.8644 64.924 11.1288V18.0522H62.4328C62.4811 17.7312 62.4771 17.3977 62.4734 17.0787C62.4724 16.9942 62.4714 16.9107 62.4714 16.8288V12.2192C62.4714 11.892 62.4269 11.6401 62.3385 11.4473C62.2492 11.2525 62.1163 11.1209 61.9464 11.0337C61.7786 10.9475 61.5775 10.9062 61.3528 10.8857C61.1286 10.8653 60.8751 10.8653 60.6008 10.8653H60.5986H58.3903C58.156 10.8653 57.9685 10.9165 57.839 11.0267C57.7077 11.1383 57.6467 11.3013 57.6467 11.5005C57.6467 11.7236 57.7607 11.8908 57.916 11.9997C58.0696 12.1076 58.2652 12.1605 58.4404 12.1605H60.3476C60.5045 12.1605 60.6216 12.1636 60.7101 12.1743C60.7994 12.1852 60.8511 12.2028 60.8829 12.2255C60.9117 12.2461 60.931 12.2758 60.9431 12.3291C60.9558 12.385 60.9591 12.4604 60.9591 12.5662V16.7792C60.9591 18.7659 60.5466 20.7785 59.9684 22.4175C59.6794 23.2369 59.3493 23.9618 59.0094 24.5426C58.6689 25.1247 58.3213 25.5575 57.9992 25.7976L57.9957 25.8003C57.803 25.9652 57.6779 26.1315 57.6389 26.3031C57.5989 26.4791 57.6521 26.6478 57.7873 26.8081C57.9094 26.9555 58.0623 27.046 58.2446 27.0668C58.4253 27.0874 58.6271 27.0387 58.8478 26.9234ZM68.6377 11.1288V28.997C68.6377 29.169 68.744 29.3639 68.8847 29.5124C69.0254 29.6609 69.2175 29.7809 69.4064 29.7809C69.5913 29.7809 69.7769 29.6905 69.9149 29.5507C70.0542 29.4101 70.15 29.2146 70.15 28.997V11.1288C70.15 10.8841 70.0919 10.6912 69.9624 10.5597C69.8323 10.4279 69.6428 10.3696 69.4064 10.3696C69.2314 10.3696 69.0392 10.4228 68.8906 10.5459C68.7401 10.6706 68.6377 10.8629 68.6377 11.1288Z" fill="#808080" stroke="#808080" stroke-width="0.2"/>
<path d="M45.004 9.72031C45.0031 9.51201 44.9427 9.34401 44.8087 9.22955C44.6755 9.11588 44.4813 9.06494 44.2353 9.06494H38.1876C37.965 9.06494 37.7832 9.11659 37.6568 9.23072C37.5293 9.34583 37.4691 9.51455 37.4691 9.72494C37.4691 9.91335 37.5312 10.0643 37.6601 10.1662C37.7864 10.266 37.9668 10.3106 38.1876 10.3106H44.2855C44.5293 10.3106 44.7233 10.2668 44.8506 10.1662C44.9821 10.0623 45.03 9.90827 45.004 9.72031ZM47.4883 12.228C47.4883 11.9948 47.3826 11.8327 47.234 11.7314C47.0884 11.632 46.9048 11.5928 46.7448 11.5928H35.6782C35.4439 11.5928 35.2564 11.644 35.1269 11.7542C34.9956 11.8658 34.9346 12.0287 34.9346 12.228C34.9346 12.3957 35.0057 12.55 35.1362 12.6614C35.2663 12.7726 35.452 12.8384 35.6782 12.8384H46.7949C47.0032 12.8384 47.1762 12.7491 47.2965 12.6304C47.4152 12.5131 47.4883 12.3611 47.4883 12.228ZM46.3089 16.8623C46.3089 16.233 46.1686 15.7174 45.9116 15.2989C45.6545 14.8805 45.2832 14.5632 44.8275 14.3264C43.9188 13.8541 42.6694 13.6993 41.2993 13.6993C39.827 13.6993 38.5711 13.9102 37.6812 14.4111C36.786 14.9149 36.2646 15.7107 36.2646 16.8623C36.2646 17.516 36.4046 18.0469 36.662 18.4748C36.9194 18.9027 37.2917 19.2233 37.7492 19.4603C38.6613 19.9328 39.9172 20.0749 41.2993 20.0749C42.7718 20.0749 44.0216 19.8578 44.9054 19.3473C45.7945 18.8339 46.3089 18.0256 46.3089 16.8623ZM37.7517 16.8623C37.7517 16.4706 37.8477 16.1686 38.0181 15.9342C38.1888 15.6995 38.4383 15.5271 38.7549 15.4019C39.3909 15.15 40.2823 15.0936 41.2993 15.0936C42.3524 15.0936 43.2247 15.1808 43.8321 15.4474C44.1344 15.58 44.3681 15.756 44.5266 15.9852C44.6849 16.2142 44.7715 16.5013 44.7715 16.8623C44.7715 17.2805 44.6811 17.602 44.5186 17.8504C44.3562 18.0987 44.1183 18.2794 43.8137 18.4103C43.2006 18.6737 42.3293 18.7302 41.2993 18.7302C40.2077 18.7302 39.3173 18.6491 38.701 18.3736C38.3946 18.2365 38.1586 18.0526 37.9988 17.8085C37.8389 17.5645 37.7517 17.2553 37.7517 16.8623ZM53.8966 14.6658H51.3529V9.82407C51.3529 9.56288 51.2731 9.37009 51.134 9.24331C50.9959 9.11744 50.8085 9.06494 50.6093 9.06494C50.3733 9.06494 50.1836 9.12325 50.0538 9.25505C49.9243 9.38646 49.8657 9.57944 49.8657 9.82407V19.4893C49.8657 19.711 49.9253 19.8864 50.0565 20.0052C50.1865 20.1229 50.3751 20.1741 50.6093 20.1741C50.8622 20.1741 51.0503 20.0948 51.1748 19.9647C51.2986 19.8355 51.3529 19.6633 51.3529 19.4893V15.961H53.8966C54.0849 15.961 54.2369 15.9076 54.3409 15.7939C54.4437 15.6815 54.4897 15.5207 54.4897 15.3258C54.4897 15.1195 54.4442 14.9526 54.3416 14.8368C54.2375 14.7194 54.0849 14.6658 53.8966 14.6658ZM39.2759 27.271C39.2759 27.4546 39.3224 27.6048 39.4309 27.7082C39.539 27.8113 39.6967 27.8567 39.894 27.8567H49.5804C49.8878 27.8567 50.1524 27.8506 50.3751 27.8192C50.598 27.7879 50.7848 27.7307 50.9335 27.6243C51.2347 27.4089 51.3529 27.0128 51.3529 26.3293V22.8102C51.3529 22.2007 51.2595 21.7797 50.9848 21.5151C50.7105 21.2509 50.2724 21.1589 49.6306 21.1589H38.8651C38.2785 21.1589 37.7823 21.1883 37.4345 21.4009C37.0772 21.6194 36.8919 22.0189 36.8919 22.711V27.1223C36.8919 27.2839 36.9938 27.4549 37.1363 27.5826C37.2803 27.7116 37.4774 27.8071 37.6857 27.8071C37.8889 27.8071 38.0634 27.7399 38.1873 27.6177C38.3111 27.4953 38.3791 27.323 38.3791 27.1223V23.058C38.3791 22.749 38.4308 22.6151 38.5376 22.5455C38.5942 22.5087 38.6736 22.4849 38.7869 22.471C38.9001 22.4572 39.0407 22.4541 39.2165 22.4541H49.1789C49.3474 22.4541 49.4731 22.4619 49.5681 22.4827C49.6618 22.5033 49.72 22.5354 49.7595 22.5803C49.7999 22.6261 49.8275 22.693 49.8442 22.7964C49.8609 22.9001 49.8657 23.0334 49.8657 23.2067V25.908C49.8657 26.0747 49.8594 26.2011 49.8403 26.2979C49.8213 26.3939 49.791 26.4547 49.7477 26.4963C49.7042 26.5381 49.64 26.5677 49.5386 26.5862C49.4367 26.6048 49.3039 26.611 49.1287 26.611H39.894C39.6944 26.611 39.5356 26.6638 39.4279 26.7811C39.3214 26.8972 39.2759 27.0647 39.2759 27.271Z" fill="#808080" stroke="#808080" stroke-width="0.2"/>
</g>
<defs>
<clipPath id="clip0_234_4717">
<rect width="70" height="30" fill="white"/>
</clipPath>
</defs>
</svg>
