<svg width="34" height="34" viewBox="0 0 34 34" fill="none" xmlns="http://www.w3.org/2000/svg">
<path d="M20.8366 27.9183L19.0048 29.75L20.8366 31.5817C21.3905 32.1357 21.3905 33.031 20.8366 33.5849C20.5603 33.8612 20.1977 34 19.835 34C19.4723 34 19.1097 33.8612 18.8334 33.5849L17.0017 31.7532L15.1699 33.5849C14.8937 33.8612 14.531 34 14.1683 34C13.8057 34 13.443 33.8612 13.1667 33.5849C12.6128 33.031 12.6128 32.1357 13.1667 31.5817L14.9985 29.75L13.1667 27.9183C12.6128 27.3643 12.6128 26.469 13.1667 25.9151C13.7207 25.3612 14.616 25.3612 15.1699 25.9151L17.0017 27.7468L18.8334 25.9151C19.3873 25.3612 20.2827 25.3612 20.8366 25.9151C21.3905 26.469 21.3905 27.3643 20.8366 27.9183ZM30.3382 29.75L32.1699 27.9183C32.7238 27.3643 32.7238 26.469 32.1699 25.9151C31.616 25.3612 30.7207 25.3612 30.1667 25.9151L28.335 27.7468L26.5032 25.9151C25.9493 25.3612 25.054 25.3612 24.5001 25.9151C23.9462 26.469 23.9462 27.3643 24.5001 27.9183L26.3318 29.75L24.5001 31.5817C23.9462 32.1357 23.9462 33.031 24.5001 33.5849C24.7763 33.8612 25.139 34 25.5017 34C25.8643 34 26.227 33.8612 26.5032 33.5849L28.335 31.7532L30.1667 33.5849C30.443 33.8612 30.8057 34 31.1683 34C31.531 34 31.8937 33.8612 32.1699 33.5849C32.7238 33.031 32.7238 32.1357 32.1699 31.5817L30.3382 29.75ZM9.50324 25.9151C8.94932 25.3612 8.05399 25.3612 7.50007 25.9151L5.66832 27.7468L3.83657 25.9151C3.28266 25.3612 2.38732 25.3612 1.83341 25.9151C1.27949 26.469 1.27949 27.3643 1.83341 27.9183L3.66516 29.75L1.83341 31.5817C1.27949 32.1357 1.27949 33.031 1.83341 33.5849C2.10966 33.8612 2.47232 34 2.83499 34C3.19766 34 3.56032 33.8612 3.83657 33.5849L5.66832 31.7532L7.50007 33.5849C7.77632 33.8612 8.13899 34 8.50166 34C8.86432 34 9.22699 33.8612 9.50324 33.5849C10.0572 33.031 10.0572 32.1357 9.50324 31.5817L7.67149 29.75L9.50324 27.9183C10.0572 27.3643 10.0572 26.469 9.50324 25.9151ZM25.5017 15.5833C25.5017 18.7085 22.9602 21.25 19.835 21.25H14.1683C11.0432 21.25 8.50166 18.7085 8.50166 15.5833V12.75C8.50166 10.6618 9.64916 8.85417 11.335 7.871V5.66667C11.335 2.5415 13.8765 0 17.0017 0C20.1268 0 22.6683 2.5415 22.6683 5.66667V7.871C24.3542 8.85417 25.5017 10.6618 25.5017 12.75V15.5833ZM14.1683 7.08333H19.835V5.66667C19.835 4.10408 18.5642 2.83333 17.0017 2.83333C15.4391 2.83333 14.1683 4.10408 14.1683 5.66667V7.08333ZM22.6683 12.75C22.6683 11.1874 21.3976 9.91667 19.835 9.91667H14.1683C12.6057 9.91667 11.335 11.1874 11.335 12.75V15.5833C11.335 17.1459 12.6057 18.4167 14.1683 18.4167H19.835C21.3976 18.4167 22.6683 17.1459 22.6683 15.5833V12.75ZM17.0017 12.0417C15.8287 12.0417 14.8767 12.9937 14.8767 14.1667C14.8767 15.3397 15.8287 16.2917 17.0017 16.2917C18.1747 16.2917 19.1267 15.3397 19.1267 14.1667C19.1267 12.9937 18.1747 12.0417 17.0017 12.0417Z" fill="#03BF93"/>
</svg>
