<svg width="36" height="36" viewBox="0 0 36 36" fill="none" xmlns="http://www.w3.org/2000/svg">
<g clip-path="url(#clip0_282_152)">
<path d="M28.5 0H7.5C5.51161 0.00238179 3.60534 0.793323 2.19933 2.19933C0.793323 3.60534 0.00238179 5.51161 0 7.5L0 28.5C0.00238179 30.4884 0.793323 32.3947 2.19933 33.8007C3.60534 35.2067 5.51161 35.9976 7.5 36H28.5C30.4884 35.9976 32.3947 35.2067 33.8007 33.8007C35.2067 32.3947 35.9976 30.4884 36 28.5V7.5C35.9976 5.51161 35.2067 3.60534 33.8007 2.19933C32.3947 0.793323 30.4884 0.00238179 28.5 0ZM7.5 3H28.5C29.6935 3 30.8381 3.47411 31.682 4.31802C32.5259 5.16193 33 6.30653 33 7.5V28.5C32.9974 29.1682 32.8436 29.8272 32.55 30.4275L18.8055 16.683C18.109 15.9864 17.2822 15.4337 16.3721 15.0567C15.462 14.6797 14.4866 14.4856 13.5015 14.4856C12.5164 14.4856 11.541 14.6797 10.6309 15.0567C9.72085 15.4337 8.89397 15.9864 8.1975 16.683L3 21.879V7.5C3 6.30653 3.47411 5.16193 4.31802 4.31802C5.16193 3.47411 6.30653 3 7.5 3ZM7.5 33C6.30653 33 5.16193 32.5259 4.31802 31.682C3.47411 30.8381 3 29.6935 3 28.5V26.121L10.317 18.804C10.7349 18.3858 11.2311 18.0541 11.7773 17.8278C12.3234 17.6015 12.9088 17.485 13.5 17.485C14.0912 17.485 14.6766 17.6015 15.2227 17.8278C15.7689 18.0541 16.2651 18.3858 16.683 18.804L30.4275 32.55C29.8272 32.8436 29.1682 32.9974 28.5 33H7.5Z" fill="#666666"/>
<path d="M24 15.75C25.0384 15.75 26.0534 15.4421 26.9167 14.8652C27.7801 14.2883 28.453 13.4684 28.8504 12.5091C29.2477 11.5498 29.3517 10.4942 29.1491 9.47578C28.9466 8.45738 28.4465 7.52192 27.7123 6.78769C26.9781 6.05347 26.0426 5.55345 25.0242 5.35088C24.0058 5.14831 22.9502 5.25227 21.9909 5.64963C21.0316 6.04699 20.2117 6.7199 19.6348 7.58326C19.0579 8.44662 18.75 9.46165 18.75 10.5C18.75 11.8924 19.3031 13.2277 20.2877 14.2123C21.2723 15.1969 22.6076 15.75 24 15.75ZM24 8.25C24.445 8.25 24.88 8.38196 25.25 8.6292C25.62 8.87643 25.9084 9.22783 26.0787 9.63897C26.249 10.0501 26.2936 10.5025 26.2068 10.939C26.12 11.3754 25.9057 11.7763 25.591 12.091C25.2763 12.4057 24.8754 12.62 24.439 12.7068C24.0025 12.7936 23.5501 12.749 23.139 12.5787C22.7278 12.4084 22.3764 12.12 22.1292 11.75C21.882 11.38 21.75 10.945 21.75 10.5C21.75 9.90327 21.9871 9.33097 22.409 8.90901C22.831 8.48706 23.4033 8.25 24 8.25Z" fill="#666666"/>
</g>
<defs>
<clipPath id="clip0_282_152">
<rect width="36" height="36" fill="white"/>
</clipPath>
</defs>
</svg>
