<svg width="16" height="16" viewBox="0 0 16 16" fill="none" xmlns="http://www.w3.org/2000/svg">
<path d="M6.16647 14.6673L5.8998 12.534C5.75536 12.4784 5.61925 12.4118 5.49147 12.334C5.36369 12.2562 5.23869 12.1729 5.11647 12.084L3.13314 12.9173L1.2998 9.75065L3.01647 8.45065C3.00536 8.37287 2.9998 8.29787 2.9998 8.22565V7.77565C2.9998 7.70343 3.00536 7.62843 3.01647 7.55065L1.2998 6.25065L3.13314 3.08398L5.11647 3.91732C5.23869 3.82843 5.36647 3.7451 5.4998 3.66732C5.63314 3.58954 5.76647 3.52287 5.8998 3.46732L6.16647 1.33398H9.83314L10.0998 3.46732C10.2442 3.52287 10.3804 3.58954 10.5081 3.66732C10.6359 3.7451 10.7609 3.82843 10.8831 3.91732L12.8665 3.08398L14.6998 6.25065L12.9831 7.55065C12.9942 7.62843 12.9998 7.70343 12.9998 7.77565V8.22565C12.9998 8.29787 12.9887 8.37287 12.9665 8.45065L14.6831 9.75065L12.8498 12.9173L10.8831 12.084C10.7609 12.1729 10.6331 12.2562 10.4998 12.334C10.3665 12.4118 10.2331 12.4784 10.0998 12.534L9.83314 14.6673H6.16647ZM8.03314 10.334C8.67758 10.334 9.22758 10.1062 9.68314 9.65065C10.1387 9.1951 10.3665 8.6451 10.3665 8.00065C10.3665 7.35621 10.1387 6.80621 9.68314 6.35065C9.22758 5.8951 8.67758 5.66732 8.03314 5.66732C7.37758 5.66732 6.8248 5.8951 6.3748 6.35065C5.9248 6.80621 5.6998 7.35621 5.6998 8.00065C5.6998 8.6451 5.9248 9.1951 6.3748 9.65065C6.8248 10.1062 7.37758 10.334 8.03314 10.334Z" fill="#666666"/>
</svg>
