<svg width="32" height="32" viewBox="0 0 32 32" fill="none" xmlns="http://www.w3.org/2000/svg">
<circle cx="16" cy="16" r="15.5" fill="#0E76F5" stroke="white"/>
<path d="M15.625 9.25C16.6608 9.25 17.5 10.0893 17.5 11.125C17.5 12.1607 16.6608 13 15.625 13C14.5893 13 13.75 12.1607 13.75 11.125C13.75 10.0893 14.5893 9.25 15.625 9.25ZM19.603 17.5795L18.5282 15.25H19.54C19.8317 15.25 20.0988 15.421 20.221 15.685L21.031 17.4392C21.205 17.8165 21.652 17.98 22.0262 17.806C22.402 17.6327 22.5662 17.1865 22.3923 16.8108L21.5823 15.0557C21.2155 14.2622 20.4137 13.75 19.5392 13.75C19.5392 13.75 17.2847 13.7425 17.2382 13.75C16.6683 13.8032 16.1342 14.083 15.7533 14.5173C15.7203 14.5547 14.6725 16.3727 14.6725 16.3727C14.539 16.606 14.29 16.75 14.0215 16.75H12.2485C11.8345 16.75 11.4985 17.0852 11.4985 17.5C11.4985 17.9148 11.8345 18.25 12.2485 18.25H14.0215C14.8255 18.25 15.5733 17.8172 15.9738 17.119L16.1403 16.8287L17.3883 19.5355L16.0922 20.5938C15.5672 21.0227 15.2657 21.6588 15.2657 22.3368V24.25C15.2657 24.6647 15.6017 25 16.0157 25C16.4297 25 16.7657 24.6647 16.7657 24.25V22.3368C16.7657 22.1103 16.8662 21.898 17.041 21.7555L18.7773 20.338C19.6705 19.7455 20.023 18.6055 19.6015 17.5795H19.603ZM22.75 21.25H20.9957C20.839 21.25 20.6882 21.202 20.56 21.1105C20.2225 20.8705 19.7545 20.9493 19.5138 21.286C19.2738 21.6235 19.3525 22.0915 19.69 22.3323C20.0733 22.6053 20.5247 22.75 20.995 22.75H22.7493C23.1632 22.75 23.4993 22.4148 23.4993 22C23.4993 21.5852 23.164 21.25 22.75 21.25ZM18.25 8.5C19.4905 8.5 20.5 9.5095 20.5 10.75V11.5C20.5 11.9148 20.836 12.25 21.25 12.25C21.664 12.25 22 11.9148 22 11.5V10.75C22 8.68225 20.3177 7 18.25 7H11.5015C9.4345 7 7.7515 8.6815 7.7515 10.7492L7.75 24.25C7.75 24.664 8.086 25 8.5 25C8.914 25 9.25 24.6647 9.25 24.25L9.2515 10.7492C9.2515 9.5095 10.261 8.5 11.5015 8.5H18.25Z" fill="white"/>
</svg>
