<svg width="15" height="14" viewBox="0 0 15 14" fill="none" xmlns="http://www.w3.org/2000/svg">
<path d="M11.6604 0H3.18941C2.38733 0.00092625 1.61838 0.308514 1.05123 0.855295C0.484073 1.40208 0.165023 2.1434 0.164063 2.91667L0.164062 11.0833C0.165023 11.8566 0.484073 12.5979 1.05123 13.1447C1.61838 13.6915 2.38733 13.9991 3.18941 14H11.6604C12.4625 13.9991 13.2314 13.6915 13.7986 13.1447C14.3657 12.5979 14.6848 11.8566 14.6857 11.0833V2.91667C14.6848 2.1434 14.3657 1.40208 13.7986 0.855295C13.2314 0.308514 12.4625 0.00092625 11.6604 0ZM13.4756 11.0833C13.4756 11.5475 13.2843 11.9926 12.9439 12.3208C12.6035 12.649 12.1418 12.8333 11.6604 12.8333H3.18941C2.70798 12.8333 2.24628 12.649 1.90586 12.3208C1.56544 11.9926 1.3742 11.5475 1.3742 11.0833V2.91667C1.3742 2.45254 1.56544 2.00742 1.90586 1.67923C2.24628 1.35104 2.70798 1.16667 3.18941 1.16667H11.6604C12.1418 1.16667 12.6035 1.35104 12.9439 1.67923C13.2843 2.00742 13.4756 2.45254 13.4756 2.91667V11.0833ZM11.0553 5.25C11.0553 5.40471 10.9916 5.55308 10.8781 5.66248C10.7646 5.77188 10.6107 5.83333 10.4502 5.83333C10.2898 5.83333 10.1359 5.77188 10.0224 5.66248C9.90891 5.55308 9.84517 5.40471 9.84517 5.25C9.84517 5.09529 9.78142 4.94692 9.66795 4.83752C9.55447 4.72813 9.40057 4.66667 9.2401 4.66667H8.02996V9.33333H8.63503C8.7955 9.33333 8.9494 9.39479 9.06288 9.50419C9.17635 9.61358 9.2401 9.76196 9.2401 9.91667C9.2401 10.0714 9.17635 10.2198 9.06288 10.3291C8.9494 10.4385 8.7955 10.5 8.63503 10.5H6.21475C6.05428 10.5 5.90038 10.4385 5.7869 10.3291C5.67343 10.2198 5.60968 10.0714 5.60968 9.91667C5.60968 9.76196 5.67343 9.61358 5.7869 9.50419C5.90038 9.39479 6.05428 9.33333 6.21475 9.33333H6.81982V4.66667H5.60968C5.44921 4.66667 5.29531 4.72813 5.18184 4.83752C5.06836 4.94692 5.00461 5.09529 5.00461 5.25C5.00461 5.40471 4.94087 5.55308 4.82739 5.66248C4.71392 5.77188 4.56002 5.83333 4.39955 5.83333C4.23907 5.83333 4.08517 5.77188 3.9717 5.66248C3.85822 5.55308 3.79448 5.40471 3.79448 5.25C3.79448 4.78587 3.98572 4.34075 4.32614 4.01256C4.66656 3.68438 5.12826 3.5 5.60968 3.5H9.2401C9.72152 3.5 10.1832 3.68438 10.5236 4.01256C10.8641 4.34075 11.0553 4.78587 11.0553 5.25Z" fill="#808080"/>
</svg>
