<svg width="14" height="15" viewBox="0 0 14 15" fill="none" xmlns="http://www.w3.org/2000/svg">
<g clip-path="url(#clip0_293_1336)">
<path d="M4.375 8.01498C3.85582 8.01498 3.34831 7.86102 2.91663 7.57258C2.48495 7.28414 2.1485 6.87418 1.94982 6.39452C1.75114 5.91486 1.69915 5.38706 1.80044 4.87786C1.90172 4.36866 2.15173 3.90093 2.51884 3.53382C2.88596 3.16671 3.35369 2.9167 3.86289 2.81541C4.37209 2.71413 4.89989 2.76611 5.37954 2.96479C5.8592 3.16347 6.26917 3.49992 6.55761 3.9316C6.84605 4.36328 7 4.8708 7 5.38998C6.99923 6.08593 6.72242 6.75316 6.2303 7.24528C5.73819 7.73739 5.07096 8.0142 4.375 8.01498ZM4.375 3.93164C4.08657 3.93164 3.80462 4.01717 3.56479 4.17742C3.32497 4.33766 3.13805 4.56542 3.02768 4.8319C2.9173 5.09837 2.88842 5.39159 2.94469 5.67448C3.00096 5.95737 3.13985 6.21722 3.3438 6.42117C3.54775 6.62512 3.8076 6.76402 4.09049 6.82029C4.37338 6.87656 4.6666 6.84768 4.93308 6.7373C5.19956 6.62692 5.42732 6.44 5.58756 6.20018C5.7478 5.96036 5.83333 5.67841 5.83333 5.38998C5.83333 5.0032 5.67969 4.63227 5.4062 4.35878C5.13271 4.08529 4.76177 3.93164 4.375 3.93164ZM8.75 13.8483V13.5566C8.75 12.3963 8.28906 11.2835 7.46859 10.463C6.64812 9.64258 5.53532 9.18164 4.375 9.18164C3.21468 9.18164 2.10188 9.64258 1.28141 10.463C0.460936 11.2835 0 12.3963 0 13.5566L0 13.8483C0 14.003 0.0614582 14.1514 0.170854 14.2608C0.280251 14.3702 0.428624 14.4316 0.583333 14.4316C0.738043 14.4316 0.886416 14.3702 0.995812 14.2608C1.10521 14.1514 1.16667 14.003 1.16667 13.8483V13.5566C1.16667 12.7057 1.50469 11.8897 2.10637 11.288C2.70805 10.6863 3.5241 10.3483 4.375 10.3483C5.2259 10.3483 6.04195 10.6863 6.64363 11.288C7.24531 11.8897 7.58333 12.7057 7.58333 13.5566V13.8483C7.58333 14.003 7.64479 14.1514 7.75419 14.2608C7.86358 14.3702 8.01196 14.4316 8.16667 14.4316C8.32138 14.4316 8.46975 14.3702 8.57915 14.2608C8.68854 14.1514 8.75 14.003 8.75 13.8483ZM14 10.9316C14 10.1434 13.7718 9.37196 13.343 8.71052C12.9142 8.04908 12.3031 7.5259 11.5835 7.20412C10.8639 6.88235 10.0665 6.77573 9.28769 6.89716C8.50883 7.01858 7.78176 7.36284 7.19425 7.88839C7.13636 7.93926 7.08913 8.00109 7.05528 8.07031C7.02142 8.13954 7.00162 8.21479 6.99701 8.29171C6.99241 8.36863 7.00309 8.4457 7.02843 8.51847C7.05378 8.59124 7.0933 8.65827 7.1447 8.71568C7.1961 8.7731 7.25837 8.81975 7.3279 8.85297C7.39744 8.88618 7.47287 8.90528 7.54983 8.90917C7.62679 8.91307 7.70376 8.90167 7.77629 8.87565C7.84883 8.84963 7.91548 8.80949 7.97242 8.75756C8.3921 8.38225 8.91143 8.13644 9.46774 8.04978C10.024 7.96312 10.5935 8.03932 11.1075 8.26919C11.6214 8.49906 12.0579 8.87277 12.3641 9.34521C12.6704 9.81765 12.8333 10.3686 12.8333 10.9316C12.8333 11.0864 12.8948 11.2347 13.0042 11.3441C13.1136 11.4535 13.262 11.515 13.4167 11.515C13.5714 11.515 13.7197 11.4535 13.8291 11.3441C13.9385 11.2347 14 11.0864 14 10.9316ZM10.2083 5.68164C9.68916 5.68164 9.18164 5.52769 8.74996 5.23925C8.31828 4.95081 7.98183 4.54084 7.78315 4.06119C7.58447 3.58153 7.53249 3.05373 7.63377 2.54453C7.73506 2.03533 7.98506 1.5676 8.35218 1.20049C8.71929 0.833374 9.18702 0.583367 9.69622 0.48208C10.2054 0.380794 10.7332 0.432778 11.2129 0.631458C11.6925 0.830138 12.1025 1.16659 12.3909 1.59827C12.6794 2.02995 12.8333 2.53747 12.8333 3.05664C12.8326 3.7526 12.5558 4.41983 12.0636 4.91194C11.5715 5.40406 10.9043 5.68087 10.2083 5.68164ZM10.2083 1.59831C9.9199 1.59831 9.63795 1.68384 9.39813 1.84408C9.15831 2.00433 8.97139 2.23209 8.86101 2.49856C8.75063 2.76504 8.72175 3.05826 8.77802 3.34115C8.83429 3.62404 8.97318 3.88389 9.17714 4.08784C9.38109 4.29179 9.64094 4.43068 9.92383 4.48695C10.2067 4.54322 10.4999 4.51434 10.7664 4.40397C11.0329 4.29359 11.2606 4.10667 11.4209 3.86685C11.5811 3.62703 11.6667 3.34507 11.6667 3.05664C11.6667 2.66987 11.513 2.29894 11.2395 2.02544C10.966 1.75195 10.5951 1.59831 10.2083 1.59831Z" fill="#808080"/>
</g>
<defs>
<clipPath id="clip0_293_1336">
<rect width="14" height="14" fill="white" transform="translate(0 0.431641)"/>
</clipPath>
</defs>
</svg>
