<svg width="34" height="34" viewBox="0 0 34 34" fill="none" xmlns="http://www.w3.org/2000/svg">
<g clip-path="url(#clip0_462_101)">
<path d="M7.79167 9.91667C10.5258 9.91667 12.75 7.6925 12.75 4.95833C12.75 2.22417 10.5258 0 7.79167 0C5.0575 0 2.83333 2.22417 2.83333 4.95833C2.83333 7.6925 5.0575 9.91667 7.79167 9.91667ZM7.79167 2.83333C8.96325 2.83333 9.91667 3.78675 9.91667 4.95833C9.91667 6.12992 8.96325 7.08333 7.79167 7.08333C6.62008 7.08333 5.66667 6.12992 5.66667 4.95833C5.66667 3.78675 6.62008 2.83333 7.79167 2.83333ZM7.08333 14.1667C4.74017 14.1667 2.83333 16.0735 2.83333 18.4167C2.83333 19.2001 2.19867 19.8333 1.41667 19.8333C0.634667 19.8333 0 19.2001 0 18.4167C0 14.5109 3.17758 11.3333 7.08333 11.3333C7.86533 11.3333 8.5 11.9666 8.5 12.75C8.5 13.5334 7.86533 14.1667 7.08333 14.1667ZM17 24.0833C17 24.8667 16.3653 25.5 15.5833 25.5H14.1667C11.8235 25.5 9.91667 27.4068 9.91667 29.75C9.91667 30.5334 9.282 31.1667 8.5 31.1667C7.718 31.1667 7.08333 30.5334 7.08333 29.75C7.08333 25.8442 10.2609 22.6667 14.1667 22.6667H15.5833C16.3653 22.6667 17 23.2999 17 24.0833ZM21.9583 9.91667C24.6925 9.91667 26.9167 7.6925 26.9167 4.95833C26.9167 2.22417 24.6925 0 21.9583 0C19.2242 0 17 2.22417 17 4.95833C17 7.6925 19.2242 9.91667 21.9583 9.91667ZM21.9583 2.83333C23.1299 2.83333 24.0833 3.78675 24.0833 4.95833C24.0833 6.12992 23.1299 7.08333 21.9583 7.08333C20.7867 7.08333 19.8333 6.12992 19.8333 4.95833C19.8333 3.78675 20.7867 2.83333 21.9583 2.83333ZM22.6667 11.3333C25.1869 11.3333 27.5386 12.6905 28.8022 14.8736C29.1932 15.5522 28.9623 16.4177 28.2852 16.8087C28.0627 16.9391 27.8177 17 27.5768 17C27.0881 17 26.6121 16.7464 26.3486 16.2931C25.5907 14.9813 24.1797 14.1667 22.6667 14.1667C21.8847 14.1667 21.25 13.5334 21.25 12.75C21.25 11.9666 21.8847 11.3333 22.6667 11.3333ZM34 26.9167C34 27.7001 33.3653 28.3333 32.5833 28.3333H28.3333V32.5833C28.3333 33.3667 27.6987 34 26.9167 34C26.1347 34 25.5 33.3667 25.5 32.5833V28.3333H21.25C20.468 28.3333 19.8333 27.7001 19.8333 26.9167C19.8333 26.1332 20.468 25.5 21.25 25.5H25.5V21.25C25.5 20.4666 26.1347 19.8333 26.9167 19.8333C27.6987 19.8333 28.3333 20.4666 28.3333 21.25V25.5H32.5833C33.3653 25.5 34 26.1332 34 26.9167ZM14.875 11.3333C12.1408 11.3333 9.91667 13.5575 9.91667 16.2917C9.91667 19.0258 12.1408 21.25 14.875 21.25C17.6092 21.25 19.8333 19.0258 19.8333 16.2917C19.8333 13.5575 17.6092 11.3333 14.875 11.3333ZM14.875 18.4167C13.7034 18.4167 12.75 17.4632 12.75 16.2917C12.75 15.1201 13.7034 14.1667 14.875 14.1667C16.0466 14.1667 17 15.1201 17 16.2917C17 17.4632 16.0466 18.4167 14.875 18.4167Z" fill="#03BF93"/>
</g>
<defs>
<clipPath id="clip0_462_101">
<rect width="34" height="34" fill="white"/>
</clipPath>
</defs>
</svg>
